<?xml version="1.0" standalone="no"?><!DOCTYPE svg PUBLIC "-//W3C//DTD SVG 1.1//EN" "http://www.w3.org/Graphics/SVG/1.1/DTD/svg11.dtd"><svg t="1531379794105" class="icon" style="" viewBox="0 0 1025 1024" version="1.1" xmlns="http://www.w3.org/2000/svg" p-id="1497" xmlns:xlink="http://www.w3.org/1999/xlink" width="200.1953125" height="200"><defs><style type="text/css"></style></defs><path d="M772.8 571.2c65.6-43.2 110.4-116.8 110.4-201.6 0-132.8-108.8-240-240-240-56 0-108.8 19.2-150.4 52.8 1.6-14.4-6.4-30.4-20.8-35.2-28.8-11.2-57.6-16-88-16-132.8 0-240 108.8-240 240 0 84.8 43.2 160 110.4 201.6-112 48-190.4 160-190.4 289.6C64 880 80 896 97.6 896s33.6-14.4 33.6-33.6c0-139.2 113.6-252.8 252.8-252.8 17.6 0 33.6-14.4 33.6-33.6 0-17.6-14.4-33.6-33.6-33.6-96 0-174.4-78.4-174.4-174.4S288 193.6 384 193.6c22.4 0 43.2 4.8 64 11.2 4.8 1.6 9.6 3.2 16 1.6-38.4 43.2-60.8 99.2-60.8 160 0 84.8 43.2 160 110.4 201.6-113.6 52.8-190.4 164.8-190.4 294.4 0 17.6 14.4 33.6 33.6 33.6s33.6-14.4 33.6-33.6c0-139.2 113.6-252.8 252.8-252.8S896 723.2 896 862.4c0 17.6 14.4 33.6 33.6 33.6 17.6 0 33.6-14.4 33.6-33.6-3.2-129.6-80-241.6-190.4-291.2zM467.2 369.6c0-96 78.4-174.4 174.4-174.4S816 273.6 816 369.6 737.6 544 641.6 544s-174.4-78.4-174.4-174.4z" p-id="1498"></path><path d="M732.8 336h-57.6v-57.6c0-17.6-14.4-33.6-33.6-33.6-17.6 0-33.6 14.4-33.6 33.6V336h-57.6c-17.6 0-33.6 14.4-33.6 33.6 0 17.6 14.4 33.6 33.6 33.6H608v57.6c0 17.6 14.4 33.6 33.6 33.6 17.6 0 33.6-14.4 33.6-33.6v-57.6h57.6c17.6 0 33.6-14.4 33.6-33.6 0-19.2-16-33.6-33.6-33.6z" p-id="1499"></path></svg>