<?xml version="1.0" standalone="no"?><!DOCTYPE svg PUBLIC "-//W3C//DTD SVG 1.1//EN" "http://www.w3.org/Graphics/SVG/1.1/DTD/svg11.dtd"><svg t="1531465695988" class="icon" style="" viewBox="0 0 1024 1024" version="1.1" xmlns="http://www.w3.org/2000/svg" p-id="2637" xmlns:xlink="http://www.w3.org/1999/xlink" width="200" height="200"><defs><style type="text/css"></style></defs><path d="M863.36 697.6c-108.373333 0-179.2-23.466667-205.226667-67.626667s-2.773333-99.2 5.333334-116.266666A240.64 240.64 0 1 0 359.253333 512c6.826667 13.653333 33.28 72.96 6.4 118.826667s-96.64 66.773333-205.013333 66.773333A75.52 75.52 0 0 0 85.333333 772.48v90.88A75.733333 75.733333 0 0 0 160.64 938.666667h702.72A75.733333 75.733333 0 0 0 938.666667 863.36v-90.88a75.52 75.52 0 0 0-75.306667-74.88zM314.88 326.186667A197.973333 197.973333 0 1 1 512 524.16a198.186667 198.186667 0 0 1-197.12-197.973333z m87.893333 325.12a146.346667 146.346667 0 0 0 13.44-104.96 238.933333 238.933333 0 0 0 192 1.066666 145.92 145.92 0 0 0 13.653334 103.893334 139.093333 139.093333 0 0 0 46.293333 46.293333H356.48a139.093333 139.093333 0 0 0 46.293333-46.293333zM896 863.36A32.853333 32.853333 0 0 1 863.36 896H160.64A32.853333 32.853333 0 0 1 128 863.36v-90.88a32.853333 32.853333 0 0 1 32.64-32.213333h702.72A32.853333 32.853333 0 0 1 896 772.48z" p-id="2638"></path></svg>