<?xml version="1.0" standalone="no"?><!DOCTYPE svg PUBLIC "-//W3C//DTD SVG 1.1//EN" "http://www.w3.org/Graphics/SVG/1.1/DTD/svg11.dtd"><svg width="1024" height="1024" viewBox="0 0 1024 1024" version="1.1" xmlns="http://www.w3.org/2000/svg" xmlns:xlink="http://www.w3.org/1999/xlink"><defs><style type="text/css"><![CDATA[]]></style></defs><g class="transform-group"><g transform="scale(1, 1)"><path d="M653.9594 118.772464l-56.789297 0c0-15.450924-5.400339-28.652574-16.212008-39.356716-10.836653-10.703743-24.048695-16.120071-39.760842-16.120071l-56.786299 0c-15.706751 0-28.915795 5.413729-39.73506 16.120071-10.834654 10.704143-16.242987 23.905792-16.242987 39.356716L371.518095 118.772464l0 111.837974 282.446301 0L653.9594 118.772464 653.9594 118.772464zM538.031399 170.133442c-6.879336 6.871341-15.185704 10.303414-24.825169 10.303414-10.175101 0-18.619376-3.432073-25.228895-10.303414-6.602523-6.876338-9.904285-15.047798-9.904285-24.566744 0-10.160511 3.301761-18.492462 9.904285-25.090389 6.606521-6.46062 15.053794-9.767378 25.228895-9.767378 9.639464 0 17.945833 3.309156 24.825169 9.767378 6.994258 6.597927 10.435924 14.929878 10.435924 25.090389C548.462127 155.085844 545.025457 163.257104 538.031399 170.133442zM489.493308 516.789609l160.212976 0 0 44.17405-160.212976 0L489.493308 516.789609zM545.180352 611.87594l66.418768 42.270141c2.620223-1.287127 5.862026-3.842395 9.770376-7.680792 27.364447-17.93584 48.196123-32.655859 62.535401-44.178847L478.741597 602.286442l0 105.638177c14.33628-5.110535 36.473271-12.159756 66.438755-21.127675 10.416937-3.837398 18.227642-6.392666 23.442106-7.685789l-54.699714-36.488061L545.180352 611.87594zM489.493308 436.106912l160.212976 0 0 44.17405-160.212976 0L489.493308 436.106912zM709.957233 177.939149l0 108.919952L315.673158 286.859102 315.673158 177.946744 162.016137 177.946744l-0.190471 781.569696 702.878249-0.25083 0.285806-781.326261L709.957233 177.939349zM429.900911 692.559037 429.900911 398.658901l255.957861 0 0 203.627341 5.862026-5.78108 31.252811 30.731964-76.193141 49.95513c9.108824 5.125525 22.139989 12.811314 39.073508 23.051171 13.032164 8.968919 23.443106 16.013143 31.258807 21.122679l-35.161161 36.494057c-5.220461-3.838398-11.724051-8.317361-19.554742-13.427896-41.673745-29.459027-72.932352-51.243057-93.774221-65.321512 0 5.130522 0.646562 12.816311 1.954675 23.05237 0 10.255047 0.641565 17.92085 1.953675 23.051371-14.323289 3.837398-33.878031 9.619478-58.608064 17.284281-16.939515 5.125525-29.968681 8.96792-39.088298 11.523187-1.308113 1.28313-3.90835 2.570257-7.816101 3.838398-5.198076 1.287127-13.675128 4.493953-25.396181 9.619478l-25.396181-34.570361C425.349397 722.654432 429.900911 709.212746 429.900911 692.559037zM324.390647 383.292919c22.152381 29.447035 43.640812 59.54243 64.485079 90.289584l-46.902 24.95548c-10.41334-17.921249-27.352455-44.176848-50.794961-78.748808-3.907751-6.398062-7.166541-10.889617-9.766778-13.444285L324.390647 383.292919zM726.881758 803.973098c-2.59524 10.241057-5.215464 17.925846-7.815701 23.051371L560.807756 827.024469c-39.089497 0-70.991668-0.636568-95.740888-1.918699-57.317938-2.555268-98.343123-19.845545-123.095741-51.864836-11.721053 8.96792-27.996418 25.606639-48.838288 49.94114-3.907751 5.130522-7.169539 8.96792-9.769776 11.523187l-23.442106-51.854643c5.197876-5.130522 14.32129-13.466869 27.349857-24.990057 13.028567-11.503201 22.137391-19.840548 27.350456-24.951083l0-142.146225-50.792363 0L263.828908 540.808324l101.586924 0 0 188.243771c23.460094 35.862685 60.577329 53.15676 111.37229 51.874829 80.762043 1.282131 166.735553 1.282131 257.909537 0C733.384349 784.769318 730.789109 792.450111 726.881758 803.973098z"></path></g></g></svg>