<?xml version="1.0" standalone="no"?><!DOCTYPE svg PUBLIC "-//W3C//DTD SVG 1.1//EN" "http://www.w3.org/Graphics/SVG/1.1/DTD/svg11.dtd"><svg width="1024" height="1024" viewBox="0 0 1024 1024" version="1.1" xmlns="http://www.w3.org/2000/svg" xmlns:xlink="http://www.w3.org/1999/xlink"><defs><style type="text/css"><![CDATA[]]></style></defs><g class="transform-group"><g transform="scale(1, 1)"><path d="M854.810135 957.636546 539.501866 957.636546c50.963719-50.714032 82.504062-120.665197 82.504062-197.953468 0-154.85795-126.566604-280.394085-282.706757-280.394085-62.20576 0-119.572306 20.204158-166.257581 53.993728L173.04159 50.436716c0-27.355021 22.328541-49.496298 49.870828-49.496298l266.061658 0 0 181.246971 0 99.178837c0 54.773488 44.656059 99.17986 99.774401 99.17986l99.772354 0 216.158085 0 0 395.657248 0 131.905192C904.680962 935.463548 882.352421 957.636546 854.810135 957.636546zM588.7495 330.955644c-27.545356 0-49.903573-22.202675-49.903573-49.589418l0-99.178837L538.845926 0.345877l365.834013 330.609767L688.521854 330.955644 588.7495 330.955644zM588.7495 767.959579c0 141.14974-115.386984 255.69352-257.755482 255.69352-142.336776 0-257.723759-114.544803-257.723759-255.69352 0-141.212162 115.386984-255.694543 257.723759-255.694543C473.361493 512.265036 588.7495 626.746394 588.7495 767.959579zM121.581568 767.959579c0 114.731044 93.777827 207.727065 209.414497 207.727065 115.668393 0 209.414497-92.996021 209.414497-207.727065s-93.747127-207.729112-209.414497-207.729112C215.358371 560.230468 121.581568 653.228535 121.581568 767.959579zM355.163487 624.122637l0 119.853715 32.228005 0 48.308239 0c13.366426 0 24.170492 10.740622 24.170492 23.983227 0 13.20679-10.80509 23.950482-24.170492 23.950482l-48.308239 0-32.226982 0-24.170492 0 0 0c-13.334703 0-24.139793-10.741645-24.139793-23.950482L306.854225 624.122637c0-13.240559 10.80509-23.952528 24.139793-23.952528C344.360444 600.170109 355.163487 610.883101 355.163487 624.122637z" ></path></g></g></svg>