<?xml version="1.0" standalone="no"?><!DOCTYPE svg PUBLIC "-//W3C//DTD SVG 1.1//EN" "http://www.w3.org/Graphics/SVG/1.1/DTD/svg11.dtd"><svg width="1024" height="1024" viewBox="0 0 1024 1024" version="1.1" xmlns="http://www.w3.org/2000/svg" xmlns:xlink="http://www.w3.org/1999/xlink"><defs><style type="text/css"><![CDATA[]]></style></defs><g class="transform-group"><g transform="scale(1, 1)"><path d="M954.072371 456.285071c-17.889439-25.936719-49.378617-12.345166-49.378617-12.345166L744.212736 604.421946 497.318626 604.421946l0-24.689309 135.791709 0c46.436612 3.382027 49.378617-49.378617 49.378617-49.378617-1.171686-36.056194-24.689309-37.034475-24.689309-37.034475l-382.685819 0L65.25419 715.524346l0 160.481018c13.482059 29.751604 61.723783 24.689309 61.723783 24.689309 66.966181-55.503105 185.170327-185.170327 185.170327-185.170327l419.71927 0c15.941064-3.457752 209.859635-209.859635 209.859635-209.859635C970.509738 481.649761 954.072371 456.285071 954.072371 456.285071zM577.559135 456.285071c92.039229 0 166.653601-74.612325 166.653601-166.653601 0-92.039229-74.613348-166.653601-166.653601-166.653601-92.041276 0-166.653601 74.613348-166.653601 166.653601C410.905534 381.672746 485.518882 456.285071 577.559135 456.285071zM525.295817 197.046818c2.091638 5.977132 4.444219 10.915607 12.811794 23.909549l45.756113 73.28919 45.494147-73.28919c7.583722-12.214183 10.720156-17.931395 12.550851-23.909549l28.237111 0c-3.660366 4.418636-9.151427 11.954263-16.211217 22.610974l-40.265052 61.85272 18.301831 0c11.765975 0 18.563798-0.51984 27.453259-2.078335l0 19.491936c-8.889461-1.560542-15.94925-2.080382-27.453259-2.080382l-27.977191 0-10.457166 15.594163 0 12.214183 38.434358 0c11.504008 0 18.301831-0.518816 27.193339-2.078335l0 19.491936c-8.890484-1.560542-15.950274-2.078335-27.193339-2.078335l-38.434358 0 0 25.468045c0 12.994965 0.521886 19.751856 2.091638 29.107945l-24.054859 0c1.568728-9.095145 2.092661-17.412578 2.092661-29.107945L573.666478 339.986321l-38.435381 0c-11.765975 0-18.301831 0.518816-27.191292 2.078335l0-19.491936c8.889461 1.560542 15.426341 2.078335 27.191292 2.078335l38.435381 0 0-12.474103-10.196223-15.33322-28.238135 0c-11.765975 0-18.301831 0.51984-27.191292 2.080382l0-19.491936c8.889461 1.559519 15.426341 2.078335 27.191292 2.078335l18.301831 0-40.525995-61.85272c-7.581676-11.695367-11.765975-17.672498-15.687284-22.610974L525.295817 197.046818z"></path></g></g></svg>