<?xml version="1.0" standalone="no"?><!DOCTYPE svg PUBLIC "-//W3C//DTD SVG 1.1//EN" "http://www.w3.org/Graphics/SVG/1.1/DTD/svg11.dtd"><svg t="1529655603885" class="icon" style="" viewBox="0 0 1024 1024" version="1.1" xmlns="http://www.w3.org/2000/svg" p-id="3496" xmlns:xlink="http://www.w3.org/1999/xlink" width="200" height="200"><defs><style type="text/css"></style></defs><path d="M960 289.536L792.96 448l-433.92 428.672L342.784 1024H51.584A51.584 51.584 0 0 1 0 973.248V50.752C0 22.72 22.784 0 51.584 0h856.832c28.48 0 51.584 23.296 51.584 50.752v238.72zM126.912 537.6c0 13.696 11.584 25.6 25.984 25.6h229.632c13.888 0 25.984-11.52 25.984-25.6 0-13.696-11.648-25.6-25.984-25.6H152.896a26.112 26.112 0 0 0-25.984 25.6z m0 204.8c0 13.696 11.392 25.6 25.536 25.6h179.328c14.4 0 25.536-11.52 25.536-25.6 0-13.696-11.456-25.6-25.6-25.6H152.512a25.344 25.344 0 0 0-25.6 25.6z m0-435.2c0 13.696 11.264 25.6 25.152 25.6H485.76a25.664 25.664 0 0 0 0-51.2H152.064c-14.08 0-25.152 11.52-25.152 25.6zM588.8 998.4c0-14.08 10.944-25.6 25.856-25.6h50.688c14.272 0 25.856 11.904 25.856 25.6 0 14.08-10.944 25.6-25.856 25.6h-50.688a25.984 25.984 0 0 1-25.856-25.6z m128 0c0-14.08 10.944-25.6 25.856-25.6h50.688c14.272 0 25.856 11.904 25.856 25.6 0 14.08-10.944 25.6-25.856 25.6h-50.688a25.984 25.984 0 0 1-25.856-25.6z m128 0c0-14.08 11.84-25.6 25.92-25.6h76.16c14.336 0 25.92 11.904 25.92 25.6 0 14.08-11.84 25.6-25.92 25.6h-76.16a26.048 26.048 0 0 1-25.92-25.6z"  p-id="3497"></path><path d="M401.6 897.536a9.792 9.792 0 0 1 2.816-5.568l2.944-2.88 112.192 111.36-2.944 2.88a9.92 9.92 0 0 1-5.568 2.752l-115.072 16.768a9.856 9.856 0 0 1-11.264-11.136l16.896-114.176z m598.464-373.76l-49.088 48.704-112.256-111.296 49.088-48.704c3.904-3.84 10.24-3.84 14.08 0l98.176 97.408c3.84 3.84 3.84 10.048 0 13.888z m-73.6 59.2c3.84 3.84 5.568 8.32 1.728 12.16l-394.624 391.36-112.192-111.36 394.56-391.36c3.84-3.84 8.384-2.112 12.288 1.792l98.176 97.408zM703.488 665.6a12.16 12.16 0 0 0 0-17.28 12.416 12.416 0 0 0-17.408 0l-189.248 187.776a12.16 12.16 0 0 0 0 17.216 12.416 12.416 0 0 0 17.408 0l189.248-187.712z" p-id="3498"></path></svg>