<?xml version="1.0" standalone="no"?><!DOCTYPE svg PUBLIC "-//W3C//DTD SVG 1.1//EN" "http://www.w3.org/Graphics/SVG/1.1/DTD/svg11.dtd"><svg t="1529573233098" class="icon" style="" viewBox="0 0 1024 1024" version="1.1" xmlns="http://www.w3.org/2000/svg" p-id="504" xmlns:xlink="http://www.w3.org/1999/xlink" width="200" height="200"><defs><style type="text/css"></style></defs><path d="M641.504 689.376 641.504 752.64 642.176 806.368 382.976 806.368 382.24 752.64 382.24 689.376 347.872 689.376 1.216 689.376 1.216 1024 1024 1024 1024 689.376 699.552 689.376Z" p-id="505"></path><path d="M409.92 347.104 409.92 594.176 409.92 780.384 615.296 780.384 615.296 594.176 615.296 347.104 733.792 347.104 646.848 236.512 620.864 203.616 604.864 183.328 508.704 61.472 416.064 183.328 400.544 203.616 375.456 236.512 291.232 347.104Z" p-id="506"></path><path d="M245.216 280.96 308.992 281.408 348.608 230.976 184.768 230.976 1.216 666.464 82.464 666.464Z" p-id="507"></path><path d="M779.904 280.96 939.392 666.464 1024 666.464 843.904 230.976 674.368 230.976 715.552 282.144Z" p-id="508" ></path></svg>