<?xml version="1.0" standalone="no"?><!DOCTYPE svg PUBLIC "-//W3C//DTD SVG 1.1//EN" "http://www.w3.org/Graphics/SVG/1.1/DTD/svg11.dtd"><svg t="1529658731704" class="icon" style="" viewBox="0 0 1024 1024" version="1.1" xmlns="http://www.w3.org/2000/svg" p-id="6802" xmlns:xlink="http://www.w3.org/1999/xlink" width="200" height="200"><defs><style type="text/css"></style></defs><path d="M651.122466 122.278529h-56.72939c0-15.435071-5.3969-28.622714-16.195818-39.315149-10.82554-10.692434-24.023421-16.103668-39.71856-16.103668h-56.731438c-15.683875 0-28.882781 5.408162-39.687843 16.103668-10.82554 10.693458-16.225511 23.881101-16.22551 39.315149h-56.856352v111.722271h282.151055l-0.006144-111.722271z m-115.807573 51.307917c-6.872318 6.864127-15.168861 10.293119-24.798503 10.293119-10.166157 0-18.598877-3.428992-25.206009-10.293119-6.595869-6.869247-9.889708-15.032684-9.889708-24.541507 0-10.150799 3.292815-18.473963 9.889708-25.064713 6.602013-6.453549 15.039852-9.756603 25.206009-9.756603 9.628618 0 17.926184 3.306126 24.798503 9.756603 6.986993 6.591774 10.4252 14.914938 10.4252 25.064713-0.006143 9.509847-3.438207 17.672261-10.4252 24.541507zM605.980386 519.738525h-73.62145c0 33.048971-0.329691 61.191483-0.981906 84.419345h74.603356v-84.419345z" p-id="6803"></path><path d="M708.613627 177.761851v108.807269H314.738253V177.770042H161.240437l-0.191466 780.76273 702.150863-0.250852 0.28464-780.520069H708.613627zM413.582095 460.84157h53.007567v-74.603357h65.76825v74.603357h73.62145v-74.603357h65.769274v74.603357h52.517126v58.896955h-52.517126v84.419345h71.658662v58.89798h-71.658662v115.832147H605.979362v-115.832147h-80.984209c-8.018046 48.26493-22.742541 89.819316-44.173485 124.666229-19.961668-17.339498-41.22879-33.701185-63.805462-49.081991 17.012879-20.774633 29.693698-45.970403 38.038364-75.584238h-60.125618v-58.89798h70.186315c0.981906-11.12349 1.472347-39.264978 1.472347-84.419345h-53.007567v-58.896955z m-82.948022-71.658662c24.541507 32.068088 46.626714 62.173389 66.260739 90.309757l-57.425633 38.773513c-19.961668-34.025757-40.41173-66.259715-61.351208-96.689587l52.516102-32.393683z m397.560337 466.763722c-21.760635 0.652215-70.676756 0.981906-146.753483 0.981906h-86.874622c-33.540435 0-62.823556-3.9266-87.855505-11.779801-25.031948-7.8532-45.485082-19.633001-61.352232-35.339402l-56.933144 58.407539-27.976642-75.094822c17.340522-16.688307 34.19265-31.983106 50.554338-45.89054V620.355736h-47.119203v-62.333115H375.297999v195.588719c25.684163 26.994737 63.967236 40.492617 114.85024 40.492616 141.51631 0 227.899467-1.142656 259.149472-3.436159-9.16275 23.559601-16.195818 45.316141-21.103301 65.278833z" p-id="6804"></path></svg>