<?xml version="1.0" standalone="no"?><!DOCTYPE svg PUBLIC "-//W3C//DTD SVG 1.1//EN" "http://www.w3.org/Graphics/SVG/1.1/DTD/svg11.dtd"><svg t="1532343932108" class="icon" style="" viewBox="0 0 1024 1024" version="1.1" xmlns="http://www.w3.org/2000/svg" p-id="6939" xmlns:xlink="http://www.w3.org/1999/xlink" width="32" height="32"><defs><style type="text/css"></style></defs><path d="M895.5904 324.92032h-277.48864V149.79584c0-43.78112-36.72064-79.60064-81.61792-79.60064h-48.96256c-44.89728 0-81.62304 35.81952-81.62304 79.60064v175.12448H128.4096c-17.95584 0-32.64512 14.336-32.64512 31.8464v159.20128c0 17.52064 14.68928 31.85152 32.64512 31.85152h16.32256v245.96992c0 70.05696-16.32256 128.17408-16.32256 128.17408 0 17.5104 14.6944 31.8464 32.64512 31.8464h701.89056c17.96096 0 32.64512-14.34112 32.64512-31.8464 0 0-16.32256-60.50816-16.32256-131.35872v-242.78528h16.32256c17.96096 0 32.64512-14.336 32.64512-31.8464V356.76672c0-17.51552-14.67904-31.8464-32.64512-31.8464z m-10.47552 164.9152c0 8.7552-7.34208 15.91808-16.32768 15.91808H155.2128c-8.98048 0-16.32256-7.168-16.32256-15.9232V382.90944c0-8.76032 7.34208-15.9232 16.32256-15.9232H449.024V157.7472c0-31.04256 25.30304-45.4912 57.13408-45.4912h11.68896c31.82592 0 57.12384 14.44864 57.12384 45.4912v209.23392h293.81632c8.9856 0 16.32768 7.15776 16.32768 15.9232V489.8304z m-197.64224 209.23392h-8.1664c-6.52288 0-12.2368 5.57056-12.2368 11.93984v200.72448h-130.5856V711.0144c0-6.36928-5.7088-11.93984-12.24704-11.93984h-8.15616c-6.52288 0-12.2368 5.57056-12.2368 11.93984v200.72448H365.09696V711.0144c0-6.36928-5.71392-11.93984-12.25216-11.93984h-8.15104c-6.528 0-12.24704 5.57056-12.24704 11.93984v200.72448h-160.9216s16.32768-47.08864 16.32768-117.9392v-245.97504h648.2944v245.97504c0 70.85056 16.32256 117.9392 16.32256 117.9392h-152.7552V711.0144c0-6.36928-5.71392-11.93984-12.24192-11.93984z" fill="#ffffff" p-id="6940"></path></svg>