<?xml version="1.0" standalone="no"?><!DOCTYPE svg PUBLIC "-//W3C//DTD SVG 1.1//EN" "http://www.w3.org/Graphics/SVG/1.1/DTD/svg11.dtd"><svg t="1556517125053" class="icon" style="" viewBox="0 0 1024 1024" version="1.1" xmlns="http://www.w3.org/2000/svg" p-id="1980" xmlns:xlink="http://www.w3.org/1999/xlink" width="200" height="200"><defs><style type="text/css"></style></defs><path d="M133.9 936.2C60.1 936.2 0 876.1 0 802.2v-222h26.4c55.7 0 100.9-45.3 100.9-100.9 0-55.7-45.3-100.9-100.9-100.9H0V140.7C0 66.9 60.1 6.8 133.9 6.8h659.2C867 6.8 927 66.9 927 140.7v317h-26.4c-30.2 0-58.5 13.5-77.7 36.5l-43.8-29.6c21.8-28.2 52.4-47.8 87.3-55.7l7.8-1.8V140.7c0-44.8-36.4-81.2-81.2-81.2H133.9c-44.8 0-81.2 36.4-81.2 81.2v186.9l7.8 1.8c33.3 7.6 63.7 26.6 85.3 53.4 22 27.2 34.1 61.4 34.1 96.4 0 35-12.1 69.2-34.1 96.4-21.7 26.8-52 45.8-85.3 53.4l-7.8 1.8v171.4c0 44.8 36.4 81.2 81.2 81.2h322.9v52.7H133.9z" p-id="1981"></path><path d="M463.6 713.5c-14.5 0-26.4-11.8-26.4-26.4V569.6H271.5c-14.5 0-26.4-11.8-26.4-26.4 0-14.5 11.8-26.3 26.4-26.3h165.7v-93H276c-14.5 0-26.4-11.8-26.4-26.3s11.8-26.4 26.4-26.4h165L270.4 200.6c-10.3-10.3-10.3-27 0-37.3 5-5 11.6-7.7 18.7-7.7s13.7 2.7 18.7 7.7l159.4 159.4 159.2-159.4c5-5 11.6-7.7 18.7-7.7s13.7 2.7 18.7 7.7c10.3 10.3 10.3 27 0 37.3L493.1 371.1h165c14.5 0 26.3 11.8 26.3 26.4 0 14.5-11.8 26.3-26.3 26.3H489.9v93h156.4c14.5 0 26.4 11.8 26.4 26.3s-11.8 26.4-26.4 26.4H489.9v117.6c0 14.6-11.8 26.4-26.3 26.4z" p-id="1982"></path><path d="M797.1 885.9c-46 0-83.4-37.5-83.4-83.4 0.1-45.9 37.5-83.3 83.4-83.4 46 0 83.4 37.5 83.5 83.4 0 21.9-8.5 42.6-23.9 58.3-15.3 15.7-35.8 24.6-57.6 25.1h-2z m-2.5-126c-22.6 1.3-40.2 20-40.2 42.6 0 23.5 19.1 42.7 42.7 42.7 23.5 0 42.7-19.2 42.7-42.7 0-23.5-19.1-42.7-42.7-42.7h-0.8l-1.7 0.1z" p-id="1983"></path><path d="M862.2 1017.2c-9.5-0.1-18.8-4.1-25.4-11.1l-0.2-0.2c-7.3-8-26.8-24.6-40.7-24.6-13.8 0-33.2 16.1-40.3 23.9l-0.1 0.1c-6.8 7.1-15.9 11-25.8 11-4.6 0-9.1-0.9-13.5-2.6l-0.7-0.2-54.9-30.5-1-0.7c-12.8-9.2-17.3-25.7-11.2-40.2 1.1-2.7 4.4-11.5 4.4-18.9 0-27.3-22.3-49.6-49.6-49.6h-2.3c-12.8 0-23-10.3-26-26.4l-0.2-1c-2.9-17-4.6-32.5-4.6-43.6 0-18.3 3.9-40.2 4.7-44.4 3-16 13.4-26.4 26.3-26.5h2c27.3 0 49.6-22.3 49.6-49.6 0-5-1.5-11.7-4.2-18.4l-0.2-0.6c-6-13.9-1.5-30.5 10.6-39.6l0.5-0.5 58.3-32.1 1.1-0.5 0.4-0.2c4.4-1.7 8.9-2.6 13.4-2.6 9.7 0 18.8 3.8 25.7 10.6l0.1 0.1c7.2 7.5 26.3 23.1 39.8 23.1 13.3 0 32.3-15.2 39.4-22.5l0.2-0.2c6.8-6.7 16.1-10.5 25.6-10.5 4.4 0 8.8 0.8 13 2.4l0.7 0.2 56.4 31.3 1.1 0.7c12.6 9.1 17.3 26 11.2 40.2l-0.1 0.2c-1.1 2.5-4.2 11.4-4.2 18.6 0 27.3 22.3 49.6 49.6 49.6h1.9c13 0 23.3 10.4 26.3 26.6 0.5 2.6 4.7 25.8 4.7 44.3 0 18.6-4.2 41.8-4.7 44.4-3 16.1-13.3 26.5-26.1 26.5H991c-27.3 0-49.6 22.3-49.6 49.6 0 8 3.6 17.1 4.4 18.9 6 14 1.6 30.5-10.5 39.6l-0.5 0.5-57.7 31.9-1 0.4c-4 1.7-8.1 2.5-12.4 2.6l-0.9 0.1-0.6 0.4z m-66.3-76.6c15.8 0 32.8 6.6 50.3 19.6 7.4 5.5 13.3 10.9 17.2 14.8l42.3-23.4c-2.3-6.7-5.2-17.4-5.2-28.5 0-46 34.5-84.4 79.6-89.7 1.3-8.3 3-20.9 3-30.8 0-10.3-1.8-23.2-3-30.7-45.1-5.5-79.6-43.9-79.6-89.8 0-11.1 2.9-21.9 5.2-28.5L864 630.4c-3.8 3.6-9.7 8.8-17 13.9-17.1 12-33.5 18.1-48.7 18.1-15.4 0-32-6.2-49.1-18.5-5.9-4.1-11.6-8.9-17.1-14.2l-43.7 24c2.3 6.8 5.2 17.4 5.2 28.5 0 46.1-34.6 84.4-79.7 89.8-1.6 9.9-3 21.9-3 30.7 0 9.7 1.6 21.9 3 30.7 45 5.4 79.6 43.7 79.6 89.7 0 11-2.9 21.8-5.2 28.6l40.6 22.7c3.7-3.7 9.6-9.1 17-14.6 17.4-12.7 34.2-19.2 50-19.2z" p-id="1984"></path></svg>