<?xml version="1.0" standalone="no"?><!DOCTYPE svg PUBLIC "-//W3C//DTD SVG 1.1//EN" "http://www.w3.org/Graphics/SVG/1.1/DTD/svg11.dtd"><svg t="1532932550694" class="icon" style="" viewBox="0 0 1024 1024" version="1.1" xmlns="http://www.w3.org/2000/svg" p-id="1053" xmlns:xlink="http://www.w3.org/1999/xlink" width="32" height="32"><defs><style type="text/css"></style></defs><path d="M512 958.01856c-119.64928 0-232.13056-46.37184-316.73856-130.56C110.62272 743.19872 64 631.19872 64 512c0-119.168 46.62272-231.19872 131.23072-315.42272 84.608-84.19328 197.08928-130.56 316.73856-130.56s232.13056 46.36672 316.6976 130.56c84.67456 84.224 131.27168 196.25472 131.27168 315.392 0.03072 119.19872-46.59712 231.22944-131.27168 315.45344-84.53632 84.19328-197.0176 130.59584-316.66688 130.59584z m0-828.03712c-102.62016 0-199.07072 39.74656-271.58016 111.93856C167.936 314.04544 128 409.984 128 512c0 102.02112 39.90016 197.94944 112.384 270.04928 72.50944 72.192 168.96 111.93344 271.58016 111.93344 102.59456 0 199.07072-39.74656 271.58016-111.93344 72.47872-72.16128 112.41984-168.064 112.384-270.08 0-102.016-39.90528-197.91872-112.384-270.01856-72.4736-72.192-168.95488-111.96928-271.54432-111.96928z" p-id="1054"></path><path d="M736 480h-448c-17.664 0-32 14.336-32 32s14.336 32 32 32h448c17.69984 0 32-14.336 32-32s-14.30016-32-32-32z" p-id="1055"></path></svg>