<?xml version="1.0" standalone="no"?><!DOCTYPE svg PUBLIC "-//W3C//DTD SVG 1.1//EN" "http://www.w3.org/Graphics/SVG/1.1/DTD/svg11.dtd"><svg t="1530260935442" class="icon" style="" viewBox="0 0 1024 1024" version="1.1" xmlns="http://www.w3.org/2000/svg" p-id="4118" xmlns:xlink="http://www.w3.org/1999/xlink" width="128" height="128"><defs><style type="text/css"></style></defs><path d="M479.17481 717.312a71.68 71.68 0 0 1-101.376 0L173.92041 513.4336a35.84 35.84 0 0 1 50.688-51.2L400.01961 637.6448a40.96 40.96 0 0 0 57.856 0L798.15081 296.96a36.7616 36.7616 0 0 1 50.0736-2.7648A35.84 35.84 0 0 1 860.81961 321.1264a35.5328 35.5328 0 0 1-10.24 25.3952L479.17481 717.312z" p-id="4119"></path><path d="M3.42441 458.1376A513.536 513.536 0 0 1 486.85481 0.6144a530.3296 530.3296 0 0 1 63.8976 0.8192A36.0448 36.0448 0 0 1 584.33961 37.1712a35.6352 35.6352 0 0 1-37.9904 35.7376C535.18761 71.68 524.02601 71.68 512.65961 71.68a440.32 440.32 0 1 0 439.0912 473.9072A35.9424 35.9424 0 0 1 987.38601 512a36.0448 36.0448 0 0 1 35.84 38.912A512 512 0 1 1 3.42441 458.1376z" p-id="4120"></path><path d="M804.70441 136.192m-35.84 0a35.84 35.84 0 1 0 71.68 0 35.84 35.84 0 1 0-71.68 0Z" p-id="4121"></path><path d="M943.14921 309.1456m-35.84 0a35.84 35.84 0 1 0 71.68 0 35.84 35.84 0 1 0-71.68 0Z" p-id="4122"></path></svg>