<?xml version="1.0" standalone="no"?><!DOCTYPE svg PUBLIC "-//W3C//DTD SVG 1.1//EN" "http://www.w3.org/Graphics/SVG/1.1/DTD/svg11.dtd"><svg t="1536569892747" class="icon" style="" viewBox="0 0 1024 1024" version="1.1" xmlns="http://www.w3.org/2000/svg" p-id="1950" xmlns:xlink="http://www.w3.org/1999/xlink" width="200" height="200"><defs><style type="text/css"></style></defs><path d="M228.5568 820.5824a28.5184 28.5184 0 0 1-28.4672-28.4672V176.3328c0-15.6672 12.8-28.4672 28.4672-28.4672h574.72c15.616 0 28.4672 12.8 28.4672 28.4672v299.2128c0 7.3728 16.384 13.312 23.7568 13.312 8.96 0 23.7056-5.7856 23.7056-13.1584V159.232c0-31.4368-25.4464-56.8832-56.8832-56.8832H210.4832C179.0464 102.4 153.6 127.8464 153.6 159.2832v649.728c0 31.3856 25.4464 58.88 56.8832 58.88h368.4864c12.8 0 14.08-14.848 14.08-23.7056 0-7.5264-0.6144-23.6032-14.3872-23.6032H228.5568z m50.0736-255.1808c-7.68-0.1536-13.9264 18.8416-14.6432 26.368-0.5632 7.8336 5.4272 25.344 13.2608 25.7536h325.4272c5.4272 0 13.0048-14.6944 13.0048-20.992v-0.256c3.4304-6.9632 0.256-26.3168-6.6048-29.5936a15.1552 15.1552 0 0 0-6.144-1.28H278.6816z m554.0864 142.6944a19.3024 19.3024 0 1 1-38.656 0 19.3024 19.3024 0 0 1 38.656 0z m-81.2544 0a61.952 61.952 0 0 0 123.8016 0 61.952 61.952 0 0 0-123.8016 0z m151.1936 23.9616a47.7696 47.7696 0 0 0-21.8112 54.784l-32.9728 19.0464a47.3088 47.3088 0 0 0-47.0016-13.1584 47.4624 47.4624 0 0 0-22.272 13.2608l-32.9728-19.0464a47.7696 47.7696 0 0 0-34.5088-59.904v-38.0928a47.5648 47.5648 0 0 0 34.5088-59.8016l32.9728-19.0464a47.6672 47.6672 0 0 0 69.12 0l32.9728 19.0464a47.8208 47.8208 0 0 0 34.6112 59.8016v38.0928a44.4416 44.4416 0 0 0-12.6464 5.0176z m55.3984-75.1616a32.6144 32.6144 0 0 1-28.0064-16.2304 32.256 32.256 0 0 1 0-32.4096 14.336 14.336 0 0 0-5.2736-19.456l-63.8976-36.864a14.336 14.336 0 0 0-19.456 5.2736 32.3584 32.3584 0 0 1-56.2176 0 14.336 14.336 0 0 0-19.456-5.2736l-63.8976 36.864a14.336 14.336 0 0 0-5.2736 19.456 32.1536 32.1536 0 0 1-11.776 44.2368 32.6656 32.6656 0 0 1-16.2304 4.4032 14.0288 14.0288 0 0 0-14.2336 14.2336v73.728a14.08 14.08 0 0 0 14.2336 14.1824 32.4096 32.4096 0 0 1 28.0064 48.64 14.336 14.336 0 0 0 5.2736 19.5072l63.8464 36.864a14.336 14.336 0 0 0 19.5072-5.2736 32.3584 32.3584 0 0 1 56.2176 0 14.592 14.592 0 0 0 8.704 6.656 14.336 14.336 0 0 0 10.8032-1.4336l63.8464-36.8128a14.336 14.336 0 0 0 5.2736-19.456 32.256 32.256 0 0 1 11.776-44.2368 32.6656 32.6656 0 0 1 16.2304-4.4544 14.1312 14.1312 0 0 0 14.2336-14.2336v-73.6768a14.0288 14.0288 0 0 0-14.2336-14.2336zM278.1184 455.0144c-7.8848 0-14.2848-12.8-14.2848-27.3408 0-12.8 6.4-27.3408 14.2336-27.3408h476.5696c7.7824 0 14.1824 14.5408 14.1824 27.3408 0 15.1552-6.2464 27.3408-14.1824 27.3408H278.016z m0-167.7824c-7.8848 0-14.2848-12.1344-14.2848-27.3408 0-13.4144 6.4-27.3408 14.2336-27.3408h277.4016c7.8336 0 14.2336 12.4416 14.2336 27.3408 0 14.5408-6.2976 27.3408-14.2336 27.3408H278.016z" p-id="1951"></path></svg>