<?xml version="1.0" standalone="no"?><!DOCTYPE svg PUBLIC "-//W3C//DTD SVG 1.1//EN" "http://www.w3.org/Graphics/SVG/1.1/DTD/svg11.dtd"><svg t="1545214344342" class="icon" style="" viewBox="0 0 1024 1024" version="1.1" xmlns="http://www.w3.org/2000/svg" p-id="5441" xmlns:xlink="http://www.w3.org/1999/xlink" width="200" height="200"><defs><style type="text/css"></style></defs><path d="M216.6875 137.00009156h159.3748169l-18.74954224 131.25009154H151.06286622L216.6875 136.99926758z m182.81277466 178.1251831h173.43759156v168.75l-75.00064088-32.81314088h-18.74954224l-79.68740844 32.81314088v-168.75zM422.93658448 137.00009156h126.5625l18.7503662 131.25009154H404.18786621l18.74954223-131.25091552z m337.49999999 0l65.62545777 131.25009154H619.81213379L601.06341552 136.99926758H760.43658447zM512 840.1248169H137.00009156V315.12527466h215.62509154v206.24908447c0 9.37600708 4.68759156 14.06277466 9.37518312 18.75036621 4.68676758 4.68841552 14.06195068 4.68841552 23.43713378 0l103.12536621-42.1875 103.12454223 42.1875h9.37518312c4.68759156 0 9.3751831 0 14.06277465-4.68759155 4.68676758-4.68676758 9.37435913-9.37435913 9.37435913-18.74954223V315.12527466h215.62591553v229.68704224c0 14.06277466 9.37435913 23.43795776 23.43713379 23.43795776s23.43713379-9.3751831 23.43713378-23.43795776v-253.125c0-4.68759156 0-4.68759156-4.68759154-9.37518311L793.24972534 104.18777466C793.24972534 94.81259156 783.87536622 90.125 774.5001831 90.125H202.62472534c-9.37435913 0-18.74954224 4.68759156-23.43713378 14.06277466L94.81259156 277.62536622v581.24981688C90.125 877.62472534 99.5001831 886.99908447 113.56213378 886.99908447H512c14.06277466 0 23.43713379-9.3751831 23.43713379-23.43713379S521.3751831 840.1248169 512 840.1248169z"  p-id="5442"></path><path d="M910.43786622 699.50036622H746.37463378V535.43713379C746.37463378 521.3751831 737.00027466 512 722.9375 512s-23.43713379 9.3751831-23.43713379 23.43713379v164.06323242H535.43713379C521.3751831 699.50036622 512 708.87472534 512 722.9375s9.3751831 23.43713379 23.43713379 23.43713379h164.06323242v164.06323242c0 14.06195068 9.37435913 23.43713379 23.43713379 23.43713379s23.43713379-9.3751831 23.43713378-23.43713379V746.37463378h164.06323243c14.06195068 0 23.43713379-9.37435913 23.43713379-23.43713378s-9.3751831-23.43713379-23.43713379-23.43713379"  p-id="5443"></path></svg>