<?xml version="1.0" standalone="no"?><!DOCTYPE svg PUBLIC "-//W3C//DTD SVG 1.1//EN" "http://www.w3.org/Graphics/SVG/1.1/DTD/svg11.dtd"><svg t="1536220223703" class="icon" style="" viewBox="0 0 1024 1024" version="1.1" xmlns="http://www.w3.org/2000/svg" p-id="1941" xmlns:xlink="http://www.w3.org/1999/xlink" ><defs><style type="text/css"></style></defs><path d="M888.61696 642.6112c1.13664 5.01248 0.0512 11.16672-1.60256 16.19456-33.37216 152.50432-160.06656 275.29216-324.608 295.552-207.49312 26.58816-398.45888-121.56928-424.50432-330.74176s121.0112-399.56992 331.2896-426.17344c5.0176-1.14176 11.71456-1.72544 17.29024-1.75104-2.32448-21.1968-5.20704-40.71936-6.95296-58.0096-2.88768-22.30784-5.75488-39.04-5.78048-44.6208-1.69984-6.12864-1.1776-13.3888 3.27168-18.432 6.65088-8.96 18.37056-10.68544 27.32544-4.02944l0.5632 1.11616 15.68768 14.4384 110.88384 86.56896 15.68256 11.65312 13.44 9.984c4.47488 3.328 6.72256 7.78752 7.86432 12.80512 1.13664 5.01248-0.51712 10.04544-3.84 14.52544l-9.98912 13.44-11.648 15.67744-86.56384 110.88384-12.76416 16.24064-1.11616 0.5632c-7.2192 7.84896-18.92864 9.56928-27.88352 2.91328-5.04832-4.44416-8.42752-11.12576-7.34208-17.26976-1.13664-5.0176-2.88256-22.30784-5.77536-44.6208-2.304-15.616-4.61312-34.02752-6.93248-52.4288-5.58592 0.0256-11.71456 1.72544-17.29024 1.75104-169.55904 21.4016-291.09248 176.53248-269.696 346.10176 21.4016 169.56416 176.53248 291.09248 346.09664 269.696 135.53664-16.78336 240.55808-118.82496 265.66656-246.17984 3.84512-14.53056 15.51872-24.6272 30.01856-26.36288 19.52768-2.88256 38.00576 11.5456 39.20896 30.5152z"  p-id="1942"></path></svg>