<?xml version="1.0" standalone="no"?><!DOCTYPE svg PUBLIC "-//W3C//DTD SVG 1.1//EN" "http://www.w3.org/Graphics/SVG/1.1/DTD/svg11.dtd"><svg t="1531277451884" class="icon" style="" viewBox="0 0 1024 1024" version="1.1" xmlns="http://www.w3.org/2000/svg" p-id="4430" xmlns:xlink="http://www.w3.org/1999/xlink" width="200" height="200"><defs><style type="text/css"></style></defs><path d="M0 405.12a128 128 0 1 1 0 256V896a128 128 0 0 0 91.52 122.88L192 918.4 297.6 1024l105.6-105.6L512 1024l105.6-105.6L724.48 1024 832 918.4l100.48 100.48A128 128 0 0 0 1024 896v-234.88a128 128 0 1 1 0-256V234.88H0z m371.84 167.04a30.08 30.08 0 1 1 0-60.8h81.92L360.32 378.24a30.08 30.08 0 1 1 49.92-34.56L512 488.96l101.76-145.28a30.08 30.08 0 0 1 49.92 34.56L570.24 512h81.92a30.08 30.08 0 1 1 0 60.8H545.92v35.2h106.24a30.08 30.08 0 0 1 30.08 30.08 30.72 30.72 0 0 1-30.08 30.08H545.92v64a32.64 32.64 0 0 1-64 0v-64H371.84a30.08 30.08 0 1 1 0-60.8H480v-35.2zM896 0H128a128 128 0 0 0-128 128v42.88h1024V128a128 128 0 0 0-128-128z" p-id="4431"></path></svg>