<?xml version="1.0" standalone="no"?><!DOCTYPE svg PUBLIC "-//W3C//DTD SVG 1.1//EN" "http://www.w3.org/Graphics/SVG/1.1/DTD/svg11.dtd"><svg class="icon" width="32px" height="32.00px" viewBox="0 0 1024 1024" version="1.1" xmlns="http://www.w3.org/2000/svg"><path  d="M1011.335605 514.445264L796.263904 606.170533l215.071701 110.889127a34.313343 34.313343 0 0 1 0 48.777835L543.931799 1013.549883c-13.572409 13.476828-50.14782 13.476828-63.720228 0L12.345794 765.837495a34.313343 34.313343 0 0 1 0-48.777835l215.055771-110.889127-215.055771-91.725269a34.313343 34.313343 0 0 1 0-48.777835l230.985828-110.889127-230.985828-107.671256c-13.572409-13.460898-13.572409-51.231064 0-64.707892L480.211571 9.956286c13.572409-13.476828 50.14782-13.476828 63.720228 0L1011.335605 182.399154c13.572409 13.476828 13.572409 51.246994 0 64.707892L780.333847 354.778302l231.001758 110.889127a34.313343 34.313343 0 0 1 0 48.777835zM140.168572 726.729205c-13.572409 13.476828-8.060609 2.532879 5.5118 16.009707l334.531199 175.230628c13.572409 13.476828 50.14782 13.476828 63.720228 0l325.116536-166.835488c13.572409-13.476828 30.60164-5.878191 17.045161-19.355019l-154.107373-72.290599L543.931799 742.738912c-13.572409 13.476828-50.14782 13.476828-63.720228 0l-191.160685-84.477093-148.882314 68.467386zM878.462998 217.047028c13.572409-13.476828 5.256919-6.451673-8.299559-19.928502L543.931799 73.676514c-13.572409-13.476828-50.14782-13.476828-63.720228 0l-334.531199 127.440457c-13.572409 13.476828-13.572409 2.453229 0 15.930057l334.531199 143.370514c13.572409 13.476828 50.14782 13.476828 63.720228 0l334.531199-143.370514z m0 254.880913l-178.336989-79.761795L543.931799 471.927941c-13.572409 13.476828-50.14782 13.476828-63.720228 0l-159.300571-80.98841-175.230628 80.98841c-13.572409 13.476828-13.572409 2.453229 0 15.930057l334.531199 159.300571c13.572409 13.476828 50.14782 13.476828 63.720228 0l334.531199-159.300571c13.572409-13.476828 13.572409-2.453229 0-15.930057z" /></svg>