<?xml version="1.0" standalone="no"?><!DOCTYPE svg PUBLIC "-//W3C//DTD SVG 1.1//EN" "http://www.w3.org/Graphics/SVG/1.1/DTD/svg11.dtd"><svg t="1531208428809" class="icon" style="" viewBox="0 0 1024 1024" version="1.1" xmlns="http://www.w3.org/2000/svg" p-id="5664" xmlns:xlink="http://www.w3.org/1999/xlink" width="200" height="200"><defs><style type="text/css"></style></defs><path d="M893.3 769.2h-68.5c-10.5 49.4-55.3 85.8-108 85.8s-97.5-36.4-108-85.8H429.6c-10.5 49.4-55.3 85.8-108 85.8s-97.5-36.4-108-85.8H145c-10.5 0-21.1-7.8-21.1-20.8 0-10.4 7.9-20.8 21.1-20.8h65.9c10.5-49.4 55.3-85.8 108-85.8s97.5 36.4 108 85.8h179.2c10.5-49.4 55.3-85.8 108-85.8s97.5 36.4 108 85.8h47.4V576.8H606.1c-10.5 0-21.1-7.8-21.1-20.8V210.2H255.7c-13.2 0-21.1-10.4-21.1-20.8s7.9-20.8 21.1-20.8h353c10.5 0 21.1 7.8 21.1 20.8v88.4H722c5.3 0 10.5 0 15.8 5.2l173.9 241.8c0 2.6 2.6 5.2 2.6 7.8v215.8c0.1 10.4-7.8 20.8-21 20.8zM321.6 686c-36.9 0-65.9 28.6-65.9 65s29 65 65.9 65c36.9 0 65.9-28.6 65.9-65-0.1-36.4-29-65-65.9-65z m395.2 0c-36.9 0-65.9 28.6-65.9 65s29 65 65.9 65c36.9 0 65.9-28.6 65.9-65-0.1-36.4-29-65-65.9-65z m-5.3-366.6h-81.7v215.8H867L711.5 319.4zM318.7 296c0-10.4 7.9-20.8 21.1-18.2h158.3c10.5 0 21.1 7.8 21.1 20.8 0 10.4-7.9 20.8-21.1 20.8H339.8c-13.2 0-21.1-10.4-21.1-23.4zM295 537.8h158.3c10.5 0 21.1 7.8 21.1 20.8 0 10.4-7.9 20.8-21.1 20.8H295c-10.5 0-21.1-10.4-21.1-23.4 0-10.4 10.6-20.8 21.1-18.2z m0-130h158.3c10.5 0 21.1 7.8 21.1 20.8 0 10.4-7.9 20.8-21.1 20.8H295c-10.5 0-21.1-10.4-21.1-23.4 0-10.4 10.6-20.8 21.1-18.2z m-20.6-161.9c3.8 2.7 6.2 6.6 6.9 11.1 0.6 4.4-0.7 8.8-3.6 12.3l-96.4 116.8c-3.2 3.9-8.1 6.2-13.3 6.3h-0.4c-5.1 0-9.9-2.1-13.2-5.7l-41.3-45.2c-3.1-3.4-4.6-7.7-4.2-12.2 0.4-4.5 2.6-8.6 6.3-11.4 7-5.5 18.4-4.6 24.3 1.9l27.4 30 83.3-101c5.7-6.7 16.8-8.1 24.2-2.9zM129.6 438.4h106.8c7.8 0 14.1 6.2 14.1 13.8v104.5c0 7.6-6.3 13.7-14.1 13.7H129.6c-7.7 0-14.1-6.2-14.1-13.7V452.2c0-7.6 6.3-13.8 14.1-13.8z m14.1 104.5h78.7v-77h-78.7v77z m0 0" fill="" p-id="5665"></path></svg>