<?xml version="1.0" encoding="utf-8"?><!DOCTYPE svg PUBLIC "-//W3C//DTD SVG 1.1//EN" "http://www.w3.org/Graphics/SVG/1.1/DTD/svg11.dtd"><svg version="1.1" id="图形" xmlns="http://www.w3.org/2000/svg" xmlns:xlink="http://www.w3.org/1999/xlink" x="0px" y="0px" width="1024px" height="1024px" viewBox="0 0 1024 1024" enable-background="new 0 0 1024 1024" xml:space="preserve"><path d="M962.891735 288.352729c-1.944282-1.944282-4.267187-3.13848-6.464225-4.614088L790.017456 116.576457c-16.737196-16.73515-43.852764-16.73515-60.588937 0-16.737196 16.726963-16.737196 43.861974 0 60.588937l98.100272 98.550527-450.817546 0.345877c-23.661909 0-42.847877 19.185968-42.847877 42.847877s19.185968 42.846854 42.847877 42.846854l452.869275-0.344854-100.152001 100.602256c-16.737196 16.72594-16.737196 43.861974 0 60.598146 16.736173 16.726963 43.851741 16.726963 60.588937 0l167.371962-168.124092c1.801019-1.319042 3.870144-2.030239 5.502317-3.662413 8.620331-8.609075 12.616342-19.959587 12.364609-31.236422C975.508078 308.312316 971.512067 296.961804 962.891735 288.352729zM891.528408 532.526891c-23.661909 0-42.847877 19.185968-42.847877 42.847877l0.021489 8.860808c-1.254573 60.525492-16.96744 76.917834-83.916225 77.388555l-525.46364-0.272199c-62.953797-1.809205-75.191516-20.240997-75.191516-85.317131l-0.961908 39.385009 0.292666-573.981656c3.222391-51.602262 21.508873-65.317635 86.364997-65.317635l-86.34453 0.565888 0-0.931209 685.450401 0.358157-0.166799 56.047504-0.37453-55.462173-86.447884-0.576121c69.564355 0 85.485977 16.016789 86.761016 77.484745l-0.021489 8.858762c0 23.661909 19.184945 42.847877 42.846854 42.847877s42.846854-19.185968 42.846854-42.847877l0.125867-43.474141-0.147356 0 0-42.847877c0-47.323818-38.368866-85.692684-85.693708-85.692684l-45.524846 0 0-0.053212-594.505086-0.303922 0 0.357134-45.523823 0c-46.027289 0-83.267449 36.360116-85.318154 81.885985l-0.334621 689.708378c0.166799 45.8697 36.44505 82.943061 81.84403 84.972277L848.9558 747.361841c47.199998-0.166799 85.402065-38.432311 85.402065-85.663008l0-42.846854 0.147356 0-0.125867-43.475164C934.375262 551.711835 915.190317 532.526891 891.528408 532.526891zM163.148265 661.320209l0-0.167822 26.337855 0.178055L163.148265 661.320209zM776.146541 661.624131l72.243371-0.470721 0.37453-55.473429 0.166799 55.986105L776.146541 661.624131z" transform="translate(0, 812) scale(1, -1)"/></svg>