<?xml version="1.0" standalone="no"?><!DOCTYPE svg PUBLIC "-//W3C//DTD SVG 1.1//EN" "http://www.w3.org/Graphics/SVG/1.1/DTD/svg11.dtd"><svg class="icon" width="32px" height="32.00px" viewBox="0 0 1024 1024" version="1.1" xmlns="http://www.w3.org/2000/svg"><path  d="M868.357408 706.170761a51.193422 51.193422 0 0 1 28.412349 7.013499A144.774996 144.774996 0 0 1 819.16053 614.329763V409.556076c0-159.160348-47.661076-288.01419-216.138626-320.675593A89.793262 89.793262 0 0 0 512 0.008703a101.311781 101.311781 0 0 0-91.021904 88.820586C252.500546 121.541886 204.83947 250.293341 204.83947 409.556076v204.773687a144.928577 144.928577 0 0 1-77.404453 98.854497 50.42552 50.42552 0 0 1 28.412349-7.013499A51.193422 51.193422 0 0 0 102.452627 755.009285 63.531036 63.531036 0 0 0 153.646048 819.103449h716.707904a63.531036 63.531036 0 0 0 51.193421-64.094164 51.193422 51.193422 0 0 0-53.241158-48.838524zM512 1023.877136a128.444295 128.444295 0 0 0 133.921991-122.198698H378.282783A128.393101 128.393101 0 0 0 512 1023.877136z"  /></svg>