<?xml version="1.0" standalone="no"?><!DOCTYPE svg PUBLIC "-//W3C//DTD SVG 1.1//EN" "http://www.w3.org/Graphics/SVG/1.1/DTD/svg11.dtd"><svg t="1531723867199" class="icon" style="" viewBox="0 0 1024 1024" version="1.1" xmlns="http://www.w3.org/2000/svg" p-id="2108" xmlns:xlink="http://www.w3.org/1999/xlink" width="200" height="200"><defs><style type="text/css"></style></defs><path d="M1010.073405 420.59532v88.059865c-4.257038 25.663856-16.420002 45.002969-36.488894 58.017341l-66.531417 354.307163c-1.337926 18.609336-9.000594 34.42119-22.501485 47.192303-13.62252 12.892743-29.069486 19.339114-46.219265 19.339114H185.667656c-18.609336 0-33.934672-6.081482-46.097636-18.244447-12.162965-12.284594-19.704003-28.339708-22.623114-48.28697l-66.531417-354.307163c-22.866374-14.352298-35.029338-33.691412-36.488894-58.017341v-88.059865c0-11.433187 5.716593-17.14978 17.14978-17.14978H237.116997c11.433187 0 17.14978 5.716593 17.149781 17.14978 0 11.433187-5.716593 17.14978-17.149781 17.14978H48.226155v68.720751c2.919112 22.866374 14.352298 34.42119 34.42119 34.42119h858.70531c20.068892 0 31.502079-12.162965 34.42119-36.488894v-66.653047H786.883003c-11.433187 0-17.14978-5.716593-17.149781-17.14978 0-11.433187 5.716593-17.14978 17.149781-17.14978h206.162252c11.433187 0 17.028151 5.716593 17.02815 17.14978z m-72.977788 154.591282h-850.191234l64.463713 339.225086v2.189333c2.919112 24.325929 14.352298 36.488894 34.42119 36.488895h652.664687c20.068892 0 31.502079-12.162965 34.42119-36.488895l64.220454-341.414419z m-650.475353-77.234826l206.162252-309.182564c5.716593-8.514075 3.52726-16.420002-6.446372-23.596151-8.514075-5.716593-16.420002-3.648889-23.596151 6.324742L256.456111 480.680366c-5.716593 8.635705-3.52726 16.541632 6.446371 23.717781 1.337926 1.337926 4.257038 2.189334 8.514076 2.189334 5.838223-0.12163 10.825039-3.040741 15.203706-8.635705z m362.699608-77.356456c0-11.433187-5.716593-17.14978-17.149781-17.14978H391.708279c-11.433187 0-17.14978 5.716593-17.14978 17.14978 0 11.433187 5.716593 17.14978 17.14978 17.14978h240.461812c11.554816 0 17.14978-5.716593 17.149781-17.14978z m111.777646 83.802827c10.095261-7.176149 12.162965-15.082076 6.446371-23.596152L561.381637 171.619432c-7.176149-10.095261-15.082076-12.162965-23.596152-6.446371-10.095261 7.176149-12.284594 15.082076-6.446371 23.596151l206.162252 309.182564c4.257038 5.716593 9.243853 8.514075 15.082076 8.514075 4.135408 0 7.05452-0.729778 8.514076-2.067704z m0 0" fill="" p-id="2109"></path><path d="M173.139803 758.60411L146.746169 620.432831c-1.094667-5.716593 2.675852-11.189928 8.392446-12.284595l4.500297-0.851407c5.716593-1.094667 11.189928 2.675852 12.284594 8.392445l26.515263 138.17128c1.094667 5.716593-2.675852 11.189928-8.392445 12.284594l-4.500297 0.851407c-5.716593 0.973037-11.311557-2.675852-12.406224-8.392445zM222.156551 738.170329l-16.176743-84.532605c-0.851408-4.500297 2.189334-9.000594 6.68963-9.852001l8.514075-1.581186c4.500297-0.851408 9.000594 2.189334 9.852002 6.689631L247.212258 733.426773c0.851408 4.500297-2.189334 9.000594-6.689631 9.852001l-8.514075 1.581186c-4.500297 0.973037-9.000594-2.067704-9.852001-6.689631z" fill="" p-id="2110"></path></svg>