<?xml version="1.0" standalone="no"?><!DOCTYPE svg PUBLIC "-//W3C//DTD SVG 1.1//EN" "http://www.w3.org/Graphics/SVG/1.1/DTD/svg11.dtd"><svg t="1531384766314" class="icon" style="" viewBox="0 0 1024 1024" version="1.1" xmlns="http://www.w3.org/2000/svg" p-id="3249" xmlns:xlink="http://www.w3.org/1999/xlink" width="200" height="200"><defs><style type="text/css"></style></defs><path d="M321.254059 926.153833c-60.191771 0-120.369216 0-180.560987-0.0307-28.113645-0.016374-33.624418-2.344509-33.660236-28.976334l-0.039911-30.617798c-0.084939-64.641325-0.174994-131.485935 0.347942-197.236578 0.081869-10.484285 2.886888-22.031838 7.895194-32.484399 16.988738-35.445992 34.500411-71.392406 51.437981-106.157867 18.488978-37.957309 37.606298-77.203023 56.094253-115.903289 7.692569-16.094325 18.633272-22.661202 37.770034-22.661202h0.300867c76.44574 0.257886 155.083508 0.386829 233.722301 0.386829 77.907092 0 158.188372-0.128943 238.60371-0.378642h0.296773c19.46219 0 30.625984 6.307968 38.524249 21.772929 18.39176 36.020095 37.422094 72.528332 55.82204 107.830031 19.389532 37.203095 39.428895 75.656732 58.780563 113.641671 5.727725 11.219055 8.953344 24.672097 9.094567 37.86009 0.58536 56.73385 0.507585 114.407142 0.42981 170.173921-0.023537 16.75746-0.055261 33.515942-0.055261 50.281589-0.008187 13.437692-0.01535 22.313261-5.890439 27.507817-5.375691 4.751443-13.594265 4.962255-30.196175 4.968395-80.039767 0.016374-160.103071 0.023537-240.142838 0.023537h-298.574437z m359.566473-22.336798c68.102316 0 120.259717 0.163737 169.11884 0.538286h0.836082c9.602152 0 15.374905-1.328316 18.187089-4.187575 2.492896-2.531784 3.546953-7.14098 3.413916-14.937932-1.04587-62.142289-1.070431-127.002611-0.062425-198.284495 0.094149-6.679447-0.914881-10.858834-3.172404-13.148081-2.531784-2.570671-7.569767-3.758788-15.851789-3.758788-0.484048 0-0.984469 0-1.492054 0.008187-31.821264 0.515772-60.328901 0.765471-87.149023 0.76547-29.314041 0-56.336788-0.288586-82.618625-0.898507a100.833344 100.833344 0 0 0-2.132675-0.022513c-16.47706 0-21.750415 4.023837-24.562598 18.726397-11.352092 59.219583-61.711455 102.173941-131.438861 112.09538a180.489352 180.489352 0 0 1-25.315788 1.788826c-36.208393 0-71.73216-10.99187-100.033079-30.961645-28.96917-20.437449-48.324932-48.961459-54.504981-80.328353-3.311581-16.780997-9.249094-21.375867-27.63676-21.375867-0.964002 0-1.960751 0.016374-2.984107 0.047075-23.493191 0.632434-48.727111 0.937394-77.149809 0.937394-29.504386 0-58.621943-0.320311-88.33714-0.679509l-0.886226-0.008186c-6.933239 0-11.343905 1.046894-13.476579 3.203105-1.891162 1.906513-2.750782 5.391041-2.695521 10.961169 0.687695 76.462113 0.667228 143.728347-0.066518 205.651637-0.062425 5.312243 0.831989 8.827472 2.738501 10.749335 2.398747 2.422284 7.207498 3.453828 16.090232 3.453828h0.403202c66.794466-0.234349 132.403886-0.266073 182.099092-0.266073 28.333666 0 56.661192 0.008187 84.989741 0.016374 28.332643 0.01535 56.665286 0.030701 84.997928 0.0307h5.16795c28.923119 0 57.844192-0.030701 86.759124-0.063448 28.921073-0.028654 57.843169-0.052191 86.765265-0.052191zM332.137454 647.860272c15.824159 0 30.637241 3.43029 31.871408 28.321386 2.871538 58.125615 63.863574 105.407747 135.96619 105.407746h0.202624c71.118147-0.094149 131.494122-47.172632 134.588752-104.947236 1.101131-20.469173 10.194676-28.820784 31.383268-28.820784 1.124669 0 2.288225 0.016374 3.491692 0.063448 11.14128 0.390922 23.29773 0.571033 38.258175 0.571033 9.250118 0 18.72742-0.070612 28.593599-0.133036 8.430409-0.063448 17.141218-0.124849 26.227599-0.141223-1.984288-5.077894-3.890801-10.007401-5.758426-14.820246-7.625028-19.710866-14.211349-36.742585-22.023651-53.710856-1.031543-1.797014-8.695459-5.234468-14.093664-5.258005a73620.160759 73620.160759 0 0 0-226.588483-0.336684c-70.317882 0-143.533909 0.094149-217.600346 0.281423-5.005236 0.016374-11.633515 2.382373-13.016069 3.867263-7.520646 17.804353-14.179625 36.305612-21.22748 55.867068a5814.164075 5814.164075 0 0 1-5.094267 14.110037c8.535815 0.016374 16.79737 0.069588 24.856301 0.116662 9.687091 0.063448 19.081502 0.117686 28.300919 0.117686 14.878577 0 26.992046-0.156574 38.125139-0.500421 1.219841-0.030701 2.398747-0.055261 3.53672-0.055261z m427.347454-210.029556c-0.436973 2.925776-0.820732 5.715445-0.843246 8.437573-0.063448 8.122379 0.094149 16.426915 0.257886 24.457193 0.30496 15.734103 0.624247 32.007515-0.742956 48.032251-3.655429 42.922634 9.102754 82.329015 22.063562 115.204337 4.327774 10.977543 9.203043 14.499936 20.054713 14.499935 0.742957 0 1.501264-0.01535 2.289248-0.054237 8.257462-0.382735 16.898683-0.562846 28.023589-0.562846 6.726521 0 13.680227 0.062425 21.000295 0.133036 5.578315 0.047074 11.366419 0.101312 17.437992 0.124849L759.484908 437.830716z m-625.687211 210.054116c5.922163 0.030701 11.60179 0.094149 17.157592 0.141224 7.249456 0.077775 14.178602 0.148387 20.898983 0.148386 14.066032 0 24.738615-0.327474 34.604793-1.054057 3.207199-0.234349 9.761796-7.109256 12.089932-12.680408 17.960927-43.007572 24.988314-78.98571 22.116776-113.228235-1.539128-18.398923-1.171743-37.086433-0.820732-55.160952 0.171924-8.726159 0.347941-17.750115 0.304961-26.585773-0.01228-2.992294-0.230255-5.984588-0.499398-9.082288l-19.476518 40.009139c-28.262031 58.068307-56.761481 116.632942-86.376389 177.492964z m481.943514-96.251777c39.750229 0 70.376213 0.124849 99.274772 0.413436l1.046893 0.008187c8.491811 0 13.570728-1.163556 15.983803-3.663616 2.039549-2.101974 2.929869-6.016312 2.726221-11.945638-1.19528-35.258718-0.804358-70.485712-0.209788-109.578947 0.093125-6.308992-1.274079-8.437573-2.305622-9.48856-1.937213-1.960751-5.929326-2.918612-12.211711-2.918612-70.445802 0.14941-143.57996 0.223092-217.485729 0.223092-71.785375 0-146.837303-0.069588-223.073255-0.210812-6.874908 0-11.105463 0.972188-13.069284 2.968757-1.574945 1.600529-2.305622 4.492534-2.226823 8.843845 0.703046 41.72019 0.683602 78.758525-0.059355 113.239493-0.102336 4.562122 0.656995 7.609678 2.308692 9.297192 2.074343 2.124488 6.511616 3.108956 13.957557 3.108956h0.562846c30.519555-0.171924 62.910829-0.249699 105.029105-0.249699 19.027264 0 38.051458 0.016374 57.073604 0.030701 19.0201 0.016374 38.040201 0.031724 57.060301 0.031724h5.554778c18.336498 0 36.68016-0.031724 55.024846-0.063448 18.342638-0.022514 36.694487-0.046051 55.038149-0.046051z m299.62133-70.501063l6.156512-1.16458c5.703165-1.082711 11.344928-1.913676 16.79737-2.71394 11.812602-1.738682 22.969232-3.380146 32.617436-7.258667 9.782263-3.933782 18.530936-10.25096 27.78924-16.941663 4.258186-3.074162 8.656571-6.249637 13.296469-9.293099l11.985549-7.86347-4.313447 13.663853c-13.35173 42.286106-42.312713 69.376394-81.548194 76.27484l-4.046351 0.710209-18.734584-45.413483z m-651.578125-132.821415c-28.3439-27.766727-36.336312-63.587268-19.886884-89.138428l6.449192-10.019682 2.80809 11.57416c0.981399 4.047374 1.781663 7.809232 2.55532 11.442147 1.608716 7.551346 3.000481 14.070126 5.394111 20.199007 1.629183 4.176317 4.011557 8.214481 6.539247 12.496204 3.074162 5.211954 6.25373 10.597878 8.148987 16.508784 1.675234 5.229351 0.171924 10.578434-1.426559 16.241688-0.714303 2.547134-1.457259 5.18023-1.988381 7.995482l-1.76529 9.387248-6.827833-6.68661zM110.880656 322.834121c-46.200444-12.805257-78.548737-37.129414-96.146372-72.30217-28.308082-56.574207-8.824401-120.231063 0.863713-144.973771l3.024018-7.71099 5.534311 6.167769c3.648265 4.066818 6.9578 8.104982 10.156811 12.012156 6.68354 8.167407 12.999695 15.886583 20.761853 21.593841 14.594084 10.738078 17.339749 22.235486 16.977481 36.19509-1.453166 56.985596 12.504391 100.181466 43.918359 135.939582 2.081507 2.37828 1.715145 5.253911 1.496147 6.97622-0.051168 0.386829-0.112569 0.789008-0.112569 1.183v6.712194l-6.473752-1.792921zM30.691479 144.049681c-10.871114 23.89537-9.555078 62.833054 3.831446 94.392339 8.652478 20.398561 21.075 34.852446 35.656804 41.777498-17.109494-40.625199-20.284969-79.692849-21.011552-113.020494-0.112569-4.948951-6.679447-11.42168-13.031419-17.679504-1.812364-1.78985-3.656452-3.610401-5.445279-5.469839z" p-id="3250"></path></svg>