<?xml version="1.0" standalone="no"?><!DOCTYPE svg PUBLIC "-//W3C//DTD SVG 1.1//EN" "http://www.w3.org/Graphics/SVG/1.1/DTD/svg11.dtd"><svg t="1531724416546" class="icon" style="" viewBox="0 0 1024 1024" version="1.1" xmlns="http://www.w3.org/2000/svg" p-id="4043" xmlns:xlink="http://www.w3.org/1999/xlink" width="200" height="200"><defs><style type="text/css"></style></defs><path d="M141.8 937.8h739.5V691.3H634.8c-3.2 29.5-21.7 66.5-44.8 89.6-22.4 22.4-44.8 22.4-78.4 22.4s-56 0-78.4-22.4-41.4-59.3-44.8-89.6H141.9c-0.2 82.2-0.2 164.3-0.1 246.5z m109.3-560.2c-30.3 93.5-56.7 197.7-87 291.3h224.1c5.2 0.1 22.4 0 22.4 0s-0.3 15.8 0 22.4c1.3 31.1 16.3 51.4 40.8 69.5 18.7 14.1 42.1 21.3 65.2 20 27.2-1.2 53.7-14.4 71.5-35.5 15.4-17.9 23.5-30 24.1-54 0.3-5.7 0-22.4 0-22.4s16.9 0.1 22.4 0h224.1c-30.3-93.5-56.6-197.7-86.9-291.3H251.1z m-16.8-21.2c5.7-1.6 11.8-1.1 17.7-1.1h531c8.3-0.3 15.6 5.7 18 13.6 34 102.9 67.7 206 101.6 308.9 1.7 6.1 0.9 12.4 1 18.7v243.1c-0.1 5.5-1.2 11.6-5.4 15.4-3.9 4.3-10 5-15.5 5.2-245.2-0.1-490.4 0-735.6 0-7.4 0-16.3 0.8-22-5.1-6.2-5.6-5.6-14.8-5.6-22.4 0-81 0.2-162-0.1-243-0.8-8.2 2.3-15.8 4.9-23.4 32.6-99.1 65.2-198.2 97.7-297.3 1.9-5.8 6.4-11.1 12.3-12.6zM288 260l-73-71.6c-7.8-7.7-8.1-20.5-0.7-28.6 7.4-8.1 19.8-8.4 27.6-0.7l72.9 71.6c7.8 7.7 8.1 20.5 0.7 28.5-7.3 8.1-19.6 8.5-27.5 0.8zM509.6 214.7c-4-4-6.4-9.5-6.5-15.4L500.3 86c-0.1-12 9-21.9 20.5-22.2 11.5-0.3 21.1 9.1 21.6 21.1l2.8 113.3c0.2 8.9-4.7 17-12.4 20.6-7.9 3.6-17 2-23.2-4.1zM708.3 260.2c-3.9-3.6-6.1-8.5-6.3-13.6-0.1-5.2 1.9-10.2 5.5-13.9l71.6-73c5-5.1 12.4-7.2 19.4-5.5 7 1.6 12.6 6.8 14.6 13.5s0.2 13.9-4.7 19l-71.6 73c-3.7 3.8-8.8 5.9-14.1 6.1-5.4-0.1-10.6-2-14.4-5.6z" p-id="4044"></path></svg>