<?xml version="1.0" standalone="no"?><!DOCTYPE svg PUBLIC "-//W3C//DTD SVG 1.1//EN" "http://www.w3.org/Graphics/SVG/1.1/DTD/svg11.dtd"><svg t="1531724240673" class="icon" style="" viewBox="0 0 1024 1024" version="1.1" xmlns="http://www.w3.org/2000/svg" p-id="3232" xmlns:xlink="http://www.w3.org/1999/xlink" width="200" height="200"><defs><style type="text/css"></style></defs><path d="M900.852288 1020.653595H123.147712c-30.786928 0-56.219608-25.43268-56.219607-56.219608V59.566013C66.928105 28.779085 92.360784 3.346405 123.147712 3.346405h168.658824l21.416993 72.282353c4.684967 15.393464 18.739869 26.101961 34.802615 26.101961h338.656209c16.732026 0 32.12549-12.047059 35.471895-28.779085L736.878431 3.346405H900.183007c31.456209 0 56.219608 25.43268 56.219607 56.219608V963.764706c0.669281 31.456209-24.763399 56.888889-55.550326 56.888889zM123.147712 23.424837c-20.078431 0-36.141176 16.062745-36.141176 36.141176V963.764706c0 20.078431 16.062745 36.141176 36.141176 36.141176H900.183007c20.078431 0 36.141176-16.062745 36.141176-36.141176V59.566013c0-20.078431-16.062745-36.141176-36.141176-36.141176h-146.572549l-11.377778 54.211764c-5.354248 26.101961-28.779085 44.84183-54.881046 44.84183H348.695425c-24.763399 0-46.849673-16.732026-54.211765-40.156862l-17.401307-58.227451h-153.934641z" fill="#CCCCCC" p-id="3233"></path><path d="M620.423529 26.771242H396.88366c-5.354248 0-10.039216-4.684967-10.039216-10.039216S391.529412 6.69281 396.88366 6.69281h223.539869c5.354248 0 10.039216 4.684967 10.039216 10.039216S625.777778 26.771242 620.423529 26.771242zM778.373856 366.766013H245.626144c-5.354248 0-10.039216-4.684967-10.039216-10.039216s4.684967-10.039216 10.039216-10.039215h532.747712c5.354248 0 10.039216 4.684967 10.039216 10.039215s-4.684967 10.039216-10.039216 10.039216zM778.373856 548.810458H245.626144c-5.354248 0-10.039216-4.684967-10.039216-10.039216s4.684967-10.039216 10.039216-10.039216h532.747712c5.354248 0 10.039216 4.684967 10.039216 10.039216s-4.684967 10.039216-10.039216 10.039216zM778.373856 737.547712H245.626144c-5.354248 0-10.039216-4.684967-10.039216-10.039215s4.684967-10.039216 10.039216-10.039216h532.747712c5.354248 0 10.039216 4.684967 10.039216 10.039216s-4.684967 10.039216-10.039216 10.039215z" fill="#CCCCCC" p-id="3234"></path></svg>