<?xml version="1.0" standalone="no"?><!DOCTYPE svg PUBLIC "-//W3C//DTD SVG 1.1//EN" "http://www.w3.org/Graphics/SVG/1.1/DTD/svg11.dtd"><svg t="1530091190492" class="icon" style="" viewBox="0 0 1024 1024" version="1.1" xmlns="http://www.w3.org/2000/svg" p-id="2695" xmlns:xlink="http://www.w3.org/1999/xlink" width="200" height="200"><defs><style type="text/css"></style></defs><path d="M210.016312 909.789761c-45.489488 0-49.989785-37.340302-49.989785-37.340301v-739.508256c0-16.541632 12.771113-37.461931 31.988598-37.461931h362.699608c13.74415 0 31.380449 25.542226 31.380449 25.542226v175.511581c0 16.906521 14.717187 31.623708 31.502078 31.623708h179.768619s25.420596 28.339708 25.420596 39.408006v174.416914l22.744744 22.014966V374.497684c0-14.473928-3.892149-32.353486-14.230669-42.692006L590.595479 90.492458c-10.21689-10.33852-23.839411-14.230669-38.313339-14.230669H192.015125c-30.164153 0-54.733341 24.569189-54.733342 54.9766v742.184108c0 30.407412 24.569189 54.976601 54.733342 54.9766h407.337688l-17.02815-18.487706c0.12163-0.12163-349.563606-0.12163-372.308351-0.12163z" p-id="2696"></path><path d="M477.601536 729.899513H264.871283v-17.879558h222.703884zM264.871283 260.773964h240.705072v18.730965H264.871283zM264.871283 371.213683h256.638556l11.068298 18.852596H264.871283zM264.871283 481.653403h319.277824l-14.230668 18.730966H264.871283zM264.871283 591.971493h260.895594L513.239023 610.702459H264.871283zM883.23641 704.114028l-192.174843 192.053213c-4.621927 4.621927-12.162965 4.621927-16.663261 0l-25.177337-25.177337-83.316309-83.437938c-4.621927-4.621927-4.621927-12.041335 0-16.663262l25.177337-25.177337c4.621927-4.621927 12.041335-4.621927 16.663262 0l75.045492 75.045492 158.60506-158.605059c4.621927-4.621927 12.162965-4.621927 16.784892 0l25.177336 25.177336c4.500297 4.621927 4.500297 12.041335-0.121629 16.784892" p-id="2697"></path></svg>