<?xml version="1.0" standalone="no"?><!DOCTYPE svg PUBLIC "-//W3C//DTD SVG 1.1//EN" "http://www.w3.org/Graphics/SVG/1.1/DTD/svg11.dtd"><svg t="1532069758712" class="icon" style="" viewBox="0 0 1024 1024" version="1.1" xmlns="http://www.w3.org/2000/svg" p-id="6106" xmlns:xlink="http://www.w3.org/1999/xlink" width="200" height="200"><defs><style type="text/css"></style></defs><path d="M512 0c-281.6 0-512 230.4-512 512s230.4 512 512 512c86.4 0 169.6-22.4 243.2-60.8 16-9.6 22.4-28.8 12.8-44.8-9.6-16-28.8-22.4-44.8-12.8-64 35.2-137.6 54.4-214.4 54.4-246.4 0-448-201.6-448-448s201.6-448 448-448 448 201.6 448 448c0 32-3.2 64-9.6 92.8-3.2 16 6.4 35.2 25.6 38.4 16 3.2 35.2-6.4 38.4-25.6 6.4-35.2 9.6-70.4 9.6-105.6 3.2-281.6-227.2-512-508.8-512z"  p-id="6107"></path><path d="M960 864l-70.4-70.4-3.2-3.2 44.8-44.8 32-32c6.4-6.4 3.2-12.8-3.2-16-6.4-3.2-9.6 0-12.8 3.2l-51.2 51.2-25.6 25.6-3.2-3.2-73.6-73.6c-6.4-6.4-9.6-6.4-16-3.2-3.2 3.2-3.2 9.6 3.2 16l32 32 44.8 44.8c-12.8 12.8-22.4 22.4-32 35.2l-44.8 44.8c-3.2 3.2-6.4 9.6 0 12.8 3.2 3.2 9.6 3.2 12.8 0l3.2-3.2c22.4-22.4 48-44.8 70.4-70.4l6.4-6.4 6.4 6.4 70.4 70.4 3.2 3.2c3.2 3.2 6.4 3.2 12.8 0 3.2-3.2 3.2-6.4 3.2-12.8-6.4-3.2-9.6-3.2-9.6-6.4zM688 268.8c12.8-22.4 3.2-35.2-22.4-35.2-19.2 0-32 12.8-41.6 28.8-35.2 67.2-73.6 137.6-108.8 204.8-28.8-57.6-60.8-112-89.6-169.6-9.6-16-16-32-25.6-44.8-12.8-19.2-38.4-25.6-54.4-12.8-19.2 16-6.4 28.8 0 44.8 35.2 57.6 67.2 118.4 102.4 176 3.2 6.4 12.8 12.8 9.6 25.6h-96c-19.2 0-32 3.2-32 25.6 0 19.2 16 25.6 32 25.6h73.6c48 0 48 0 48 48 0 16-6.4 19.2-19.2 19.2h-102.4c-19.2 0-32 6.4-32 25.6 0 19.2 16 25.6 32 25.6h102.4c16 0 22.4 6.4 19.2 22.4v73.6c0 22.4 6.4 41.6 32 38.4 25.6 0 32-19.2 32-41.6V675.2c0-16 6.4-19.2 22.4-19.2h96c16 0 28.8-3.2 32-22.4 0-22.4-12.8-28.8-28.8-28.8h-70.4c-48 0-48 0-48-48 0-16 6.4-19.2 19.2-19.2h99.2c16 0 28.8-6.4 28.8-25.6 0-19.2-12.8-25.6-32-25.6h-99.2c22.4-41.6 44.8-76.8 67.2-112 16-35.2 35.2-70.4 54.4-105.6z"  p-id="6108"></path></svg>