<?xml version="1.0" standalone="no"?><!DOCTYPE svg PUBLIC "-//W3C//DTD SVG 1.1//EN" "http://www.w3.org/Graphics/SVG/1.1/DTD/svg11.dtd"><svg class="icon" width="32px" height="32.00px" viewBox="0 0 1024 1024" version="1.1" xmlns="http://www.w3.org/2000/svg"><path  d="M634.88 597.333333c-6.826667-3.413333-40.96-17.066667-17.066667-81.92l0 0c54.613333-58.026667 98.986667-150.186667 98.986667-242.346667 0-139.946667-92.16-215.04-201.386667-215.04-109.226667 0-201.386667 75.093333-201.386667 215.04 0 92.16 40.96 184.32 98.986667 242.346667 20.48 58.026667-17.066667 78.506667-23.893333 81.92C269.653333 638.293333 136.533333 713.386667 136.533333 785.066667c0 20.48 0 6.826667 0 27.306667 0 98.986667 194.56 122.88 375.466667 122.88 180.906667 0 372.053333-23.893333 372.053333-122.88 0-20.48 0-6.826667 0-27.306667C887.466667 709.973333 754.346667 634.88 634.88 597.333333z" /></svg>