<?xml version="1.0" standalone="no"?><!DOCTYPE svg PUBLIC "-//W3C//DTD SVG 1.1//EN" "http://www.w3.org/Graphics/SVG/1.1/DTD/svg11.dtd"><svg t="1531208113148" class="icon" style="" viewBox="0 0 1024 1024" version="1.1" xmlns="http://www.w3.org/2000/svg" p-id="1956" xmlns:xlink="http://www.w3.org/1999/xlink" width="200" height="200"><defs><style type="text/css"></style></defs><path d="M845.9 167.5L513.3 57.1 168.1 167.5c-16.9 2-30.1 16.5-30.1 34v399.2c0 68.9 57.4 148.6 170.6 236.8 76.5 59.6 151.8 102.2 163.7 108.8 11.7 8.8 25.6 13.2 39.6 13.2 14.3 0 28.6-4.6 40.4-13.8 11.7-6.7 84.6-49.2 158.5-108.6C820.4 749.1 876 669.5 876 600.7V201.5c-0.2-17.4-13.3-31.9-30.1-34z m-12.8 433.2c0 54.3-51.4 124.4-148.8 202.7-76.4 61.4-154 105.5-154.7 106l-1.7 0.9-1.5 1.2c-8.4 6.9-20.6 7-29 0.2l-1.5-1.2-1.6-0.9c-0.8-0.4-80.6-44.4-159.5-105.9-45.8-35.7-82.2-70.1-108.1-102.2-30.5-37.8-46-71.8-46-100.9V208.4L513 102.1l320 106.3v392.3z" p-id="1957"></path><path d="M361.4 400.1c0 74.4 55.1 136.1 126.6 146.5v178.1c0 11.8 9.6 21.4 21.4 21.4 11.8 0 21.4-9.6 21.4-21.4v-70h50.9c11.8 0 21.4-9.6 21.4-21.4s-9.6-21.4-21.4-21.4h-50.9v-65.4c71.5-10.4 126.6-72.1 126.6-146.5 0-81.6-66.4-148-148-148s-148 66.5-148 148.1z m253.3 0c0 58-47.2 105.2-105.2 105.2s-105.2-47.2-105.2-105.2 47.2-105.2 105.2-105.2 105.2 47.2 105.2 105.2z" p-id="1958"></path></svg>