<?xml version="1.0" standalone="no"?><!DOCTYPE svg PUBLIC "-//W3C//DTD SVG 1.1//EN" "http://www.w3.org/Graphics/SVG/1.1/DTD/svg11.dtd"><svg t="1531277132363" class="icon" style="" viewBox="0 0 1024 1024" version="1.1" xmlns="http://www.w3.org/2000/svg" p-id="2321" xmlns:xlink="http://www.w3.org/1999/xlink" width="200" height="200"><defs><style type="text/css"></style></defs><path d="M705.243429 1001.179429a261.851429 261.851429 0 0 1-262.436572-261.266286 261.851429 261.851429 0 0 1 262.436572-261.193143 261.851429 261.851429 0 0 1 262.436571 261.193143 261.851429 261.851429 0 0 1-262.436571 261.266286z m0-474.989715a214.235429 214.235429 0 0 0-214.747429 213.723429 214.235429 214.235429 0 0 0 214.747429 213.796571 214.308571 214.308571 0 0 0 214.747428-213.796571 214.308571 214.308571 0 0 0-214.747428-213.723429zM724.114286 877.714286l-29.257143-30.793143 73.142857-92.379429H548.571429v-46.226285h219.428571L694.857143 631.369143 724.114286 585.142857 841.142857 723.748571v15.36L724.114286 877.714286zM204.214857 642.998857h192.073143a308.809143 308.809143 0 0 0-1.243429 23.771429c0 8.045714 0.585143 15.872 1.243429 23.771428H204.214857v-47.542857z m0-317.952h238.592v47.542857H204.214857v-47.542857z m0 202.24v-47.542857h238.592v47.542857H204.214857z m453.266286-169.691428c-52.662857 0-95.378286-42.496-95.378286-95.012572V48.859429H132.608a47.542857 47.542857 0 0 0-47.689143 47.542857V906.971429c0 26.185143 21.357714 47.542857 47.689143 47.542857h353.133714c13.677714 17.334857 28.964571 33.353143 46.08 47.469714H132.534857c-52.662857 0-95.451429-42.569143-95.451428-95.085714V96.402286C37.156571 43.885714 79.945143 1.462857 132.608 1.462857H594.651429l294.546285 315.684572-1.462857 8.411428 8.411429 8.338286v163.108571c-14.921143-11.702857-30.866286-21.942857-47.689143-30.72V357.595429h-190.902857z m-47.689143-269.312V262.582857c0 26.258286 21.357714 47.542857 47.689143 47.542857h161.206857L609.792 88.283429z" p-id="2322"></path></svg>