<?xml version="1.0" standalone="no"?><!DOCTYPE svg PUBLIC "-//W3C//DTD SVG 1.1//EN" "http://www.w3.org/Graphics/SVG/1.1/DTD/svg11.dtd"><svg t="1531465729640" class="icon" style="" viewBox="0 0 1024 1024" version="1.1" xmlns="http://www.w3.org/2000/svg" p-id="2817" xmlns:xlink="http://www.w3.org/1999/xlink" width="200" height="200"><defs><style type="text/css"></style></defs><path d="M427.3 552.6H144.2c-26.1 0-47.2 21.1-47.2 47.2v283.1c0 26.1 21.1 47.2 47.2 47.2h283.1c26.1 0 47.2-21.1 47.2-47.2V599.8c0-26.1-21.2-47.2-47.2-47.2z m7.8 306.7c0 17.4-14.1 31.4-31.5 31.4H167.8c-17.4 0-31.5-14.1-31.5-31.4V623.4c0-17.4 14.1-31.5 31.5-31.5h235.9c17.4 0 31.5 14.1 31.5 31.5v235.9z m448.3-306.7H600.3c-26.1 0-47.2 21.1-47.2 47.2v283.1c0 26.1 21.1 47.2 47.2 47.2h283.1c26.1 0 47.2-21.1 47.2-47.2V599.8c-0.1-26.1-21.2-47.2-47.2-47.2z m7.8 306.7c0 17.4-14.1 31.4-31.5 31.4H623.9c-17.4 0-31.4-14.1-31.4-31.4V623.4c0-17.4 14.1-31.5 31.4-31.5h235.9c17.4 0 31.5 14.1 31.5 31.5v235.9z m-174.9-396c14.1 14.1 36.9 14.1 50.9 0l152.7-152.7c14.1-14.1 14.1-36.9 0-50.9L767.2 107c-14.1-14.1-36.9-14.1-50.9 0L563.5 259.7c-14.1 14.1-14.1 36.9 0 50.9l152.8 152.7z m-109.5-194l119-119c8.8-8.8 23-8.8 31.7 0l119 119c8.8 8.8 8.8 23 0 31.7l-119 119c-8.8 8.8-23 8.8-31.7 0l-119-119c-8.7-8.7-8.7-22.9 0-31.7zM427.3 96.5H144.2c-26.1 0-47.2 21.1-47.2 47.2v283.1c0 26.1 21.1 47.2 47.2 47.2h283.1c26.1 0 47.2-21.1 47.2-47.2V143.7c0-26.1-21.2-47.2-47.2-47.2z m7.8 306.7c0 17.4-14.1 31.5-31.5 31.5H167.8c-17.4 0-31.5-14.1-31.5-31.5V167.3c0-17.4 14.1-31.4 31.5-31.4h235.9c17.4 0 31.5 14.1 31.5 31.4v235.9z m0 0" fill="" p-id="2818"></path></svg>