<?xml version="1.0" standalone="no"?><!DOCTYPE svg PUBLIC "-//W3C//DTD SVG 1.1//EN" "http://www.w3.org/Graphics/SVG/1.1/DTD/svg11.dtd"><svg t="1531277029361" class="icon" style="" viewBox="0 0 1024 1024" version="1.1" xmlns="http://www.w3.org/2000/svg" p-id="1947" xmlns:xlink="http://www.w3.org/1999/xlink" width="200" height="200"><defs><style type="text/css"></style></defs><path d="M685.056 329.216c0-11.264-9.216-19.968-20.48-19.968H333.824c-11.264 0-20.48 9.216-20.48 19.968 0 11.264 9.216 19.968 20.48 19.968h330.752c11.264 0.512 20.48-8.704 20.48-19.968z m211.968 472.064c36.864 0 67.072-29.696 67.072-66.048 0-36.352-30.208-66.048-67.072-66.048h-11.776c-1.024-3.072-2.56-6.144-4.096-9.216-1.536-3.584-2.56-6.656-4.096-10.24 1.536 3.072 2.56 6.656 4.096 9.728v-13.824l4.096-4.096c12.8-12.288 19.456-29.184 19.456-46.592 0-17.92-7.168-34.304-19.456-46.592-1.024-1.024-2.56-2.048-4.096-3.072v-317.44h40.96c23.04 0 41.472-18.432 41.472-40.448V65.536c0-22.528-18.432-40.448-41.472-40.448H105.984c-23.04 0-41.472 18.432-41.472 40.448v121.856c0 22.528 18.432 40.448 41.472 40.448h41.472v527.872c0 45.056 36.864 81.408 82.944 81.408h268.288c-8.192 11.264-12.8 24.576-12.8 38.4 0 17.92 7.168 34.304 19.456 46.592 12.8 12.288 29.696 19.456 47.616 19.456 17.92 0 34.816-6.656 47.616-19.456l8.192-8.192c6.144 3.072 12.8 5.632 19.456 8.192v11.776c0 36.352 30.208 66.048 67.072 66.048 36.864 0 67.072-29.696 67.072-66.048V921.6c6.656-2.56 13.312-5.12 19.456-8.192l8.192 8.192c12.8 12.288 29.696 19.456 47.616 19.456 17.92 0 34.816-6.656 47.616-19.456 12.8-12.288 19.456-29.184 19.456-46.592 0-17.92-7.168-34.304-19.456-46.592l-8.192-8.192c3.072-6.144 5.632-12.8 8.192-19.456h11.776zM105.984 187.392V65.536h816.64v121.856H105.984zM230.4 796.16c-23.04 0-41.472-18.432-41.472-40.448V227.84h651.264v301.568h-2.048c-17.92 0-34.816 6.656-47.616 19.456l-8.192 8.192c-6.144-3.072-12.8-5.632-19.456-8.192V537.6c0-36.352-30.208-66.048-67.072-66.048-36.864 0-67.072 29.696-67.072 66.048v11.776c-6.656 2.048-13.312 5.12-19.456 8.192l-8.192-8.192c-12.8-12.288-29.696-19.456-47.616-19.456-17.92 0-34.816 6.656-47.616 19.456-12.8 12.288-19.456 29.184-19.456 46.592 0 17.92 7.168 34.304 19.456 46.592l8.192 8.192c-3.072 6.144-5.632 12.8-8.192 19.456h-11.776c-36.864 0-67.072 29.696-67.072 66.048 0 27.136 17.408 51.2 41.472 60.928H230.4z m615.936-8.704l-6.144 15.36c-4.096 7.68-4.608 16.384-3.584 24.576 1.536 8.192 5.12 15.872 11.776 21.504l8.192 8.192c5.12 5.12 7.68 11.264 7.68 17.92s-2.56 13.312-7.68 17.92-11.264 7.168-18.432 7.168-13.312-2.56-18.432-7.168l-8.192-8.192c-7.68-7.68-18.432-11.776-29.184-11.776-6.144 0-12.288 1.536-17.92 4.096-5.12 2.048-10.24 4.608-15.36 6.656-16.384 5.632-27.648 20.992-27.648 38.4v11.776c0 13.824-11.776 25.088-25.6 25.088s-25.6-11.264-25.6-25.088V921.6c0-16.896-11.264-32.768-27.648-38.4-5.632-2.048-10.752-4.096-15.872-6.656-5.632-2.56-11.776-4.096-17.408-4.096-10.752 0-21.504 4.096-29.184 11.776l-8.192 8.192c-5.12 5.12-11.264 7.168-18.432 7.168s-13.312-2.56-18.432-7.168-7.68-11.264-7.68-17.92 2.56-13.312 7.68-17.92l8.192-8.192c3.584-3.584 6.144-8.192 8.192-12.288 4.608-10.752 5.12-23.04 0-33.792-1.024-2.048-2.048-4.608-3.072-6.656-1.024-3.072-2.56-5.632-3.584-8.192-5.632-16.384-21.504-27.136-38.912-27.136h-11.776c-14.336 0-25.6-11.264-25.6-25.088s11.776-25.088 25.6-25.088h11.776c17.408 0 33.28-10.752 38.912-27.136l6.144-15.36c7.68-15.36 4.096-33.792-8.192-46.08l-8.192-8.192c-5.12-5.12-7.68-11.264-7.68-17.92 0-6.656 2.56-13.312 7.68-17.92s11.264-7.168 18.432-7.168 13.312 2.56 18.432 7.168l8.192 8.192c7.68 7.68 18.432 11.776 29.184 11.776 6.144 0 11.776-1.536 17.408-4.096 5.12-2.56 10.24-4.608 15.36-6.144 16.384-5.632 27.648-20.992 27.648-38.4V537.6c0-13.824 11.776-25.088 25.6-25.088 14.336 0 25.6 11.264 25.6 25.088v11.776c0 17.408 11.264 32.768 27.648 38.4 5.12 1.536 10.24 4.096 15.36 6.144 5.632 2.56 11.776 4.096 17.408 4.096 10.752 0 21.504-4.096 29.184-11.776l8.192-8.192c5.12-5.12 11.264-7.168 18.432-7.168 0.512 0 1.536 0.512 2.048 0.512 6.144 0.512 11.776 2.56 15.872 6.656 5.12 5.12 7.68 11.264 7.68 17.92s-2.56 13.312-7.68 17.92l-8.192 8.192c-3.584 3.584-5.632 7.168-7.68 11.264-5.632 10.752-5.632 23.552 0 35.328v0.512c2.048 5.12 4.096 9.728 6.144 14.848 6.144 14.848 19.968 25.088 35.84 26.112 1.536 0 2.56 0.512 4.096 0.512h11.776c14.336 0 25.6 11.264 25.6 25.088s-11.776 25.088-25.6 25.088h-11.776c-1.536 0-3.072 0.512-4.608 0.512-14.848 1.536-28.16 11.264-33.792 26.112z m-151.04-151.04c-55.808 0-100.864 44.544-100.864 98.816 0 23.04 8.192 44.032 22.016 60.928 18.432 23.04 46.592 37.888 78.848 37.888 32.256 0 60.416-14.848 78.848-37.888 13.312-16.896 22.016-37.888 22.016-60.928 0-54.272-45.056-98.816-100.864-98.816z m0 157.184c-32.768 0-59.392-26.112-59.392-58.368 0-32.256 26.624-58.368 59.392-58.368 32.768 0 59.392 26.112 59.392 58.368 0.512 32.256-26.624 58.368-59.392 58.368z" p-id="1948"></path></svg>