<?xml version="1.0" standalone="no"?><!DOCTYPE svg PUBLIC "-//W3C//DTD SVG 1.1//EN" "http://www.w3.org/Graphics/SVG/1.1/DTD/svg11.dtd"><svg t="1531277379957" class="icon" style="" viewBox="0 0 1024 1024" version="1.1" xmlns="http://www.w3.org/2000/svg" p-id="3063" xmlns:xlink="http://www.w3.org/1999/xlink" width="200" height="200"><defs><style type="text/css"></style></defs><path d="M511.893333 803.392h-0.021333c-129.856 0-302.784-29.482667-296.448-221.482667 3.285333-99.2 89.450667-192.085333 191.637333-232.277333-41.344-38.784-41.557333-77.397333-41.557333-77.397333C365.504 193.429333 512 200.533333 512 200.533333s146.496-7.125333 146.496 71.68c0 0-0.298667 36.544-42.069333 78.378667 101.589333 41.514667 188.864 136.469333 192.128 235.434667 6.336 192-166.826667 217.344-296.661334 217.344zM512 0C229.226667 0 0 229.248 0 512c0 282.773333 229.226667 512 512 512 282.752 0 512-229.226667 512-512C1024 229.248 794.752 0 512 0z m91.882667 564.522667a22.741333 22.741333 0 1 0 0-45.525334h-48.64l47.402666-44.608a22.762667 22.762667 0 1 0-31.189333-33.173333l-58.688 55.253333-58.666667-55.253333a22.784 22.784 0 0 0-31.210666 33.173333l47.381333 44.608h-50.133333a22.741333 22.741333 0 1 0 0 45.525334h69.098666v40.384h-69.12a22.741333 22.741333 0 1 0 0 45.504h69.12v57.770666a22.741333 22.741333 0 1 0 45.504 0v-57.770666h69.12a22.741333 22.741333 0 1 0 0-45.504h-69.12v-40.384h69.12z"  p-id="3064"></path></svg>