<?xml version="1.0" standalone="no"?><!DOCTYPE svg PUBLIC "-//W3C//DTD SVG 1.1//EN" "http://www.w3.org/Graphics/SVG/1.1/DTD/svg11.dtd"><svg t="1531277545529" class="icon" style="" viewBox="0 0 1024 1024" version="1.1" xmlns="http://www.w3.org/2000/svg" p-id="6488" xmlns:xlink="http://www.w3.org/1999/xlink" width="200" height="200"><defs><style type="text/css"></style></defs><path d="M1021.44 908.8v-739.84c0-64-51.2-112.64-112.64-112.64h-56.32c0-30.72-25.6-56.32-56.32-56.32h-568.32c-30.72 0-56.32 25.6-56.32 56.32h-56.32c-64 0-112.64 51.2-112.64 112.64v739.84c0 64 51.2 112.64 112.64 112.64h796.16c61.44 2.56 112.64-48.64 110.08-112.64z m-394.24-168.96h-171.52c-30.72 0-56.32-25.6-56.32-56.32s25.6-56.32 56.32-56.32h168.96c30.72 0 56.32-25.6 56.32-56.32 0-30.72-25.6-56.32-56.32-56.32h-227.84v56.32l-171.52-112.64 171.52-112.64v56.32h227.84c94.72 0 171.52 76.8 171.52 168.96 0 92.16-76.8 168.96-168.96 168.96z m112.64-568.32h-455.68c-30.72 0-56.32-25.6-56.32-56.32 0-30.72 25.6-56.32 56.32-56.32h455.68c30.72 0 56.32 25.6 56.32 56.32 0 30.72-25.6 56.32-56.32 56.32z" p-id="6489"></path></svg>