<?xml version="1.0" standalone="no"?><!DOCTYPE svg PUBLIC "-//W3C//DTD SVG 1.1//EN" "http://www.w3.org/Graphics/SVG/1.1/DTD/svg11.dtd"><svg t="1530005975788" class="icon" style="" viewBox="0 0 1024 1024" version="1.1" xmlns="http://www.w3.org/2000/svg" p-id="1423" xmlns:xlink="http://www.w3.org/1999/xlink" width="200" height="200"><defs><style type="text/css"></style></defs><path d="M497.8944 319.8976c-4.5056 3.6864-7.0656 7.4752-7.7312 11.392-0.6144 3.9424-0.6656 8.2944-0.1536 13.0816l-25.7024 3.0208c-41.5744 4.0192-69.8624 16.4096-84.8896 37.12s-23.7568 41.5232-26.1376 62.4128c-1.9968 15.7696-0.9472 30.1568 3.1488 43.1872s10.9568 23.8336 20.5056 32.4608c9.6 8.6272 21.248 15.7696 34.9952 21.4528 13.7728 5.6832 26.1632 9.856 37.1968 12.5184 11.0336 2.6624 24.6528 5.248 40.8832 7.8336l0 148.7872-29.5168-8.5248c-6.4-1.4848-15.232-5.5552-26.5216-12.2368-11.2896-6.7072-21.5296-14.4128-30.6176-23.0912-9.088-8.7296-15.488-18.1504-19.1488-28.3392-3.6608-10.1376-7.9616-17.7152-12.9792-22.6816s-11.0848-5.2224-18.176-0.8192c-7.1168 4.4032-10.6752 11.9296-10.6752 22.5536s3.4304 21.6832 10.24 33.152c6.8352 11.4432 14.7712 21.8112 23.7824 31.0528 9.0624 9.2672 20.48 17.792 34.3552 25.6 13.8496 7.7824 26.7008 13.44 38.5536 17.0496 11.8528 3.5584 25.3952 6.9888 40.7296 10.2912l0 15.9488c0 4.224 1.9712 8.576 5.8624 13.056 3.9424 4.5056 9.984 6.3488 18.0992 5.504 8.1408-0.7936 13.4656-3.2 16-7.1424 2.5088-3.9168 3.7888-8.2688 3.7888-13.056L533.7856 758.528l39.9104-6.8864c14.4128-1.8176 29.9008-8.0896 46.4896-18.8416 16.5632-10.7008 29.1584-23.04 37.7344-36.9664s13.5168-28.8768 14.8992-44.8256 0.128-30.4128-3.6864-43.4432c-3.84-13.0304-9.216-24.0896-16.1536-33.28s-15.5904-16.8704-25.984-23.0912-22.3232-11.008-35.8144-14.3104-32.6144-6.5024-57.3952-9.6256l0-140.2624 19.9424 3.0208c8.5504 1.1008 18.048 5.632 28.416 13.6192 10.3936 7.9616 18.5088 17.28 24.32 27.904l12.5952 28.5952c3.6608 7.7056 8.704 13.4656 15.1808 17.3312s12.8 3.8912 18.9952 0.128c6.1952-3.7376 9.8816-9.4208 11.0848-17.0496 1.2032-7.6032-1.5616-17.7664-8.192-30.4896-6.656-12.7488-13.4912-24.1152-20.5056-34.0992-7.04-10.0096-16.7424-19.1232-29.1584-27.3664s-23.9616-13.9264-34.688-17.0496-23.4496-6.0416-37.9904-8.8064l0-7.1424c0.5376-10.0864-4.1984-16.128-14.208-18.1504S502.3744 316.2368 497.8944 319.8976zM490.0352 522.8544l-21.3248-4.1216c-15.6672-2.9184-29.1584-7.0912-40.448-12.5184-11.3152-5.4016-19.6096-12.672-24.9088-21.8624-6.1952-10.2656-8.2944-21.6832-6.2976-34.2528 1.9968-12.544 6.144-23.2192 12.4416-32.0256s14.2336-15.488 23.808-20.0704c9.5488-4.5824 18.1248-7.6032 25.7024-9.0624 7.552-1.4848 17.8944-2.5856 31.0272-3.3024L490.0352 522.8544zM533.8112 568.7808l29.7984 2.7392c20.608 1.8176 35.1488 6.3744 43.7504 13.6192 8.5504 7.2192 14.3104 16.1792 17.2032 26.8032 2.9184 10.624 3.9424 21.6064 3.0208 32.8448-0.9216 11.2896-4.1472 21.7088-9.728 31.232-5.5552 9.5232-13.5424 17.5104-24.0384 23.936s-20.4544 10.496-29.952 12.2624c-9.472 1.7152-19.5072 2.9696-30.0544 3.712L533.8112 568.7808z" p-id="1424"></path><path d="M960.6656 466.7392 522.1376 95.3344c-7.1168-6.0416-17.536-6.0672-24.704-0.1024L51.84 466.6624c-7.5264 6.272-9.1136 17.1776-3.712 25.344l85.9648 129.8176c2.8928 4.4032 7.5008 7.3984 12.672 8.32 5.3248 0.8704 10.5472-0.3584 14.7712-3.5072l37.6064-27.9296 72.5248 328.9088c1.9456 8.8064 9.7536 15.0528 18.7392 15.0528l440.2944 0c9.088 0 16.9472-6.4 18.7904-15.2832l68.3008-328.5504 42.0352 23.8336c8.9344 5.0944 20.224 2.2016 25.7024-6.4256l78.9248-124.544C969.6256 483.584 968.0128 472.9344 960.6656 466.7392zM862.9248 580.224l-49.024-27.8016c-5.3504-3.0464-11.8016-3.328-17.408-0.7936-5.5808 2.5344-9.6256 7.5776-10.88 13.568l-70.5024 339.072L305.8688 904.2688 230.272 561.4592c-1.408-6.3744-5.9136-11.5712-12.032-13.8496-6.1184-2.2784-12.9536-1.3312-18.176 2.5856l-45.1328 33.536-65.3056-98.5856L509.6192 135.04l413.4656 350.208L862.9248 580.224z" p-id="1425"></path></svg>