<?xml version="1.0" standalone="no"?><!DOCTYPE svg PUBLIC "-//W3C//DTD SVG 1.1//EN" "http://www.w3.org/Graphics/SVG/1.1/DTD/svg11.dtd"><svg class="icon" width="32px" height="32.00px" viewBox="0 0 1024 1024" version="1.1" xmlns="http://www.w3.org/2000/svg"><path  d="M516.554 348.427v33.525c-13.417 0-20.109 0-33.525 6.694-13.417 0-20.109 6.694-33.525 13.417-6.722 6.694-13.415 13.415-13.415 20.109-6.694 13.417-13.417 20.109-13.417 33.525 0 13.417 0 26.831 6.722 33.525 6.694 13.417 13.417 20.109 26.831 26.831 6.694 6.722 13.417 13.417 26.831 20.109 13.415 6.722 20.109 6.722 33.525 13.417v93.881c-20.109 0-33.525-6.694-40.247-13.415-6.694-6.694-13.415-26.831-13.415-40.247h-40.247c0 13.417 0 26.831 6.694 40.247s13.417 20.109 20.109 26.831c6.694 0 13.417 6.694 26.831 13.417 13.417 6.722 26.831 6.722 40.247 6.722v33.525h20.109v-33.525c13.417 0 26.831 0 40.247-6.722 6.722-6.694 13.415-6.694 20.109-13.417 6.694-6.722 13.417-13.415 20.109-26.831 6.694-13.417 6.694-26.831 6.694-40.247 0-13.415 0-26.831-6.694-33.525-6.694-13.417-13.417-20.109-20.109-26.831l-26.831-20.109c-13.415 0-26.831-6.694-40.247-6.694v-87.188c13.417 0 26.831 6.694 33.525 13.415 6.694 6.694 6.694 20.109 13.417 33.525h46.941c0-13.417 0-26.831-6.694-33.525-6.694-13.415-13.417-20.109-20.109-26.831-13.417-6.694-20.109-13.417-33.525-20.109-13.417 0-20.109-6.722-33.525-6.722v-26.775h-13.417z m0 147.544c-6.694 0-13.417 0-13.417-6.694-6.694 0-13.415-6.694-13.415-6.694-6.694 0-6.694-6.694-13.417-13.417 0-6.694-6.694-6.694-6.694-13.415 0-13.417 6.694-26.831 13.415-26.831 6.694-6.694 20.109-6.694 33.525-6.694v73.744z m20.111 53.662s6.722 0 13.415 6.694c6.694 0 13.417 6.694 13.417 6.694l13.415 13.417c0 6.694 6.694 13.415 6.694 20.109 0 13.417-6.694 26.831-13.417 33.525-6.694 6.722-20.109 13.415-33.525 13.415v-93.853zM912.212 442.336L536.659 133.833h-13.387v-6.694h-20.081L134.304 442.308c-13.415 13.417-13.415 26.831-6.694 33.525l67.05 107.297c6.694 6.694 13.415 13.417 20.109 13.417s13.417 0 20.109-6.694l20.109-13.415 53.663 268.228c6.694 13.415 13.417 20.109 26.831 20.109h375.553c13.417 0 20.109-6.694 26.831-20.109l53.634-268.228 26.831 13.417c6.694 6.694 13.415 6.694 20.109 6.694s13.417-6.694 13.417-13.415l67.05-107.297c6.722-6.694 6.722-20.109-6.694-33.497z m-93.876 93.882l-33.525-20.109c-6.694-6.694-13.415-6.694-20.109 0-6.694 0-13.415 6.722-13.415 20.109l-60.356 281.644H355.625l-60.356-288.366c0-6.694-6.694-13.417-13.415-20.109h-20.109l-33.525 26.831-40.247-67.05 335.306-281.673 342 281.644-46.941 67.078z" /></svg>