<?xml version="1.0" standalone="no"?><!DOCTYPE svg PUBLIC "-//W3C//DTD SVG 1.1//EN" "http://www.w3.org/Graphics/SVG/1.1/DTD/svg11.dtd"><svg class="icon" width="32px" height="32.00px" viewBox="0 0 1024 1024" version="1.1" xmlns="http://www.w3.org/2000/svg"><path  d="M557.511111 1024H466.488889c-28.444444 0-56.888889-22.755556-62.577778-51.2l-11.377778-73.955556c-22.755556-5.688889-45.511111-17.066667-68.266666-28.444444l-62.577778 45.511111c-22.755556 17.066667-62.577778 17.066667-79.644445-5.688889l-62.577777-62.577778c-22.755556-22.755556-22.755556-56.888889-5.688889-79.644444l39.822222-56.888889c-11.377778-22.755556-22.755556-45.511111-28.444444-68.266667l-73.955556-11.377777c-28.444444-17.066667-51.2-39.822222-51.2-73.955556V466.488889c0-28.444444 22.755556-56.888889 51.2-62.577778l68.266667-11.377778c5.688889-22.755556 17.066667-45.511111 28.444444-68.266666l-39.822222-56.888889c-17.066667-28.444444-11.377778-62.577778 5.688889-85.333334l62.577778-62.577777c22.755556-22.755556 56.888889-22.755556 79.644444-5.688889l56.888889 39.822222c28.444444-11.377778 51.2-22.755556 79.644444-28.444444L403.911111 51.2c5.688889-28.444444 28.444444-51.2 62.577778-51.2h91.022222c28.444444 0 56.888889 22.755556 62.577778 51.2l11.377778 68.266667c22.755556 5.688889 51.2 17.066667 73.955555 28.444444l56.888889-39.822222c22.755556-17.066667 56.888889-17.066667 79.644445 5.688889l62.577777 62.577778c22.755556 22.755556 22.755556 56.888889 5.688889 79.644444l-39.822222 56.888889c11.377778 22.755556 22.755556 45.511111 28.444444 68.266667l73.955556 11.377777-5.688889 39.822223 5.688889-28.444445c28.444444 5.688889 51.2 34.133333 51.2 62.577778v91.022222c0 28.444444-22.755556 56.888889-51.2 62.577778l-73.955556 11.377778c-5.688889 22.755556-17.066667 45.511111-28.444444 68.266666l39.822222 56.888889c17.066667 22.755556 17.066667 56.888889-5.688889 79.644445l-62.577777 62.577777c-22.755556 22.755556-56.888889 22.755556-79.644445 5.688889l-56.888889-39.822222c-22.755556 11.377778-45.511111 22.755556-68.266666 28.444445L625.777778 967.111111c-11.377778 34.133333-39.822222 56.888889-68.266667 56.888889z m-238.933333-221.866667l28.444444 17.066667c17.066667 11.377778 39.822222 17.066667 56.888889 22.755556l39.822222 11.377777 17.066667 108.088889c0 5.688889 0 5.688889 5.688889 5.688889h91.022222c5.688889 0 5.688889 0 5.688889-5.688889l17.066667-108.088889 34.133333-11.377777c22.755556-5.688889 39.822222-17.066667 62.577778-22.755556l28.444444-17.066667 113.777778 79.644445-22.755556-22.755556 62.577778-62.577778v-5.688888L796.444444 705.422222l17.066667-28.444444c11.377778-22.755556 17.066667-39.822222 22.755556-62.577778l11.377777-34.133333 108.088889-17.066667c11.377778 0 11.377778-5.688889 11.377778-5.688889V466.488889c0-5.688889 0-5.688889-5.688889-5.688889L853.333333 443.733333l-11.377777-34.133333c-5.688889-22.755556-17.066667-39.822222-22.755556-62.577778l-17.066667-28.444444L864.711111 227.555556v-5.688889l-62.577778-62.577778H796.444444l-85.333333 62.577778-28.444444-17.066667c-22.755556-11.377778-39.822222-17.066667-62.577778-22.755556l-39.822222-11.377777-17.066667-108.088889c0-5.688889-5.688889-5.688889-5.688889-5.688889H466.488889c-5.688889 0-5.688889 0-5.688889 5.688889L438.044444 170.666667l-28.444444 11.377777c-22.755556 5.688889-39.822222 17.066667-56.888889 22.755556l-34.133333 17.066667L227.555556 159.288889h-5.688889L159.288889 221.866667V227.555556l62.577778 91.022222-17.066667 34.133333c-11.377778 17.066667-22.755556 39.822222-28.444444 56.888889l-5.688889 34.133333-108.088889 17.066667c-5.688889 0-5.688889 5.688889-5.688889 5.688889v91.022222c0 5.688889 0 5.688889 5.688889 5.688889l108.088889 22.755556 11.377777 34.133333c5.688889 22.755556 17.066667 39.822222 22.755556 56.888889l17.066667 34.133333L159.288889 796.444444v5.688889l62.577778 62.577778H227.555556l91.022222-62.577778zM512 682.666667c-96.711111 0-170.666667-73.955556-170.666667-170.666667s73.955556-170.666667 170.666667-170.666667 170.666667 73.955556 170.666667 170.666667-73.955556 170.666667-170.666667 170.666667z m0-284.444445c-62.577778 0-113.777778 51.2-113.777778 113.777778s51.2 113.777778 113.777778 113.777778 113.777778-51.2 113.777778-113.777778-51.2-113.777778-113.777778-113.777778z" /></svg>