<?xml version="1.0" standalone="no"?><!DOCTYPE svg PUBLIC "-//W3C//DTD SVG 1.1//EN" "http://www.w3.org/Graphics/SVG/1.1/DTD/svg11.dtd"><svg t="1531277579133" class="icon" style="" viewBox="0 0 1024 1024" version="1.1" xmlns="http://www.w3.org/2000/svg" p-id="7101" xmlns:xlink="http://www.w3.org/1999/xlink" width="200" height="200"><defs><style type="text/css"></style></defs><path d="M947.18976 380.50304l-411.72992-289.08032c-2.9184-2.92352-7.30112-5.84192-10.21952-7.30112-11.67872-7.296-29.19936-2.9184-37.95968 10.22464L78.47424 381.96736c-13.14304 8.76032-14.59712 27.74016-4.38272 42.3424 10.22464 14.60224 29.20448 18.98496 40.8832 10.21952l27.74016-20.43904v474.50624c0 17.52064 14.60224 32.11776 32.11776 32.11776s32.11776-14.60224 32.11776-32.11776V368.82432l306.60608-214.62016 309.52448 217.54368v515.38432c0 17.52064 14.60224 32.11776 32.11776 32.11776s32.11776-14.60224 32.11776-32.11776V418.46272l21.89824 14.60224c13.13792 8.76032 30.66368 4.38272 40.87808-10.21952 10.23488-14.60224 8.77056-33.58208-2.90304-42.3424zM261.2224 763.73504l244.52096-423.52128 244.51584 423.52128H261.2224zM824.32 920.71424H174.83264l680.3712-1.46432-0.16384-58.79808L844.8 335.36l-350.72-199.68-299.52 225.28-23.04 538.29632" fill="" p-id="7102"></path><path d="M495.232 652.37504s-7.98208-40.78592-14.18752-84.93568c-6.23616-44.3392-6.1184-90.00448 27.66848-88.3968 33.17248 1.58208 33.90976 44.33408 27.70432 87.1936-6.26176 43.21792-14.592 85.93408-14.592 85.93408s-0.74752 10.00448-13.11744 10.3936c-5.85216 0.18944-11.99104-2.74944-13.47584-10.1888zM488.9856 702.80704a19.73248 19.73248 0 1 0 39.46496 0 19.73248 19.73248 0 0 0-39.46496 0zM791.04 919.38816H183.77728V880.64" fill="" p-id="7103"></path></svg>