<?xml version="1.0" standalone="no"?><!DOCTYPE svg PUBLIC "-//W3C//DTD SVG 1.1//EN" "http://www.w3.org/Graphics/SVG/1.1/DTD/svg11.dtd"><svg width="1024" height="1024" viewBox="0 0 1024 1024" version="1.1" xmlns="http://www.w3.org/2000/svg" xmlns:xlink="http://www.w3.org/1999/xlink"><defs><style type="text/css"><![CDATA[]]></style></defs><g class="transform-group"><g transform="scale(1, 1)"><path d="M12.336762 713.167238c-5.217524 15.555048-0.804571 26.307048 14.872381 31.451429l459.434667 147.456c1.828571 0.633905 3.705905 1.024 5.583238 1.26781 0-20.48 3.510857-24.81981 9.874286-43.178667L46.055619 703.75619C30.354286 698.63619 17.529905 697.660952 12.336762 713.167238zM468.065524 378.465524l-218.697143 40.472381 73.898667 207.481905 48.249905-82.627048 104.496762 59.63581 48.274286-82.70019-104.521143-59.63581L468.065524 378.465524zM491.300571 529.529905l-24.137143 41.325714-104.496762-59.66019-24.137143 41.325714-47.396571-109.714286 119.808-14.287238-24.161524 41.325714L491.300571 529.529905zM673.913905 775.606857c-68.973714 0-124.879238 55.588571-124.879238 124.14781 0 68.534857 55.905524 124.099048 124.879238 124.099048 69.071238 0 124.976762-55.56419 124.976762-124.099048C798.890667 831.195429 742.985143 775.606857 673.913905 775.606857zM673.913905 973.970286c-41.276952 0-74.752-33.255619-74.752-74.24 0-41.033143 33.475048-74.24 74.752-74.24 41.252571 0 74.703238 33.206857 74.703238 74.24C748.617143 940.714667 715.166476 973.970286 673.913905 973.970286zM1215.414857 222.47619c-2.82819-16.11581-14.750476-18.066286-31.036952-15.286857L864.548571 259.925333l-9.264762 29.915429-148.114286 441.929143c18.724571 3.388952 27.306667 5.997714 43.568762 14.60419l148.21181-442.148571 299.300571-55.296C1214.537143 246.150095 1218.218667 238.567619 1215.414857 222.47619zM673.865143 874.715429c-13.872762 0-25.039238 11.166476-25.039238 24.892952 0 13.750857 11.166476 24.917333 25.039238 24.917333s25.063619-11.166476 25.063619-24.917333C698.928762 885.881905 687.737905 874.715429 673.865143 874.715429zM648.801524 725.894095l174.713905-521.411048L524.04419 105.179429l-49.883429 173.787429L424.228571 254.147048l49.93219-173.787429L199.655619 5.87581 0 626.566095l538.794667 165.376 9.654857-10.48381c21.138286-22.918095 48.274286-39.107048 78.531048-46.811429L648.801524 725.894095zM524.04419 750.713905l-474.136381-148.967619L224.597333 55.515429 424.228571 105.179429l-49.883429 173.787429 124.757333 49.664 49.90781-173.787429 224.597333 74.48381-174.713905 471.722667C569.636571 710.38781 546.352762 729.721905 524.04419 750.713905z" ></path></g></g></svg>