<?xml version="1.0" standalone="no"?><!DOCTYPE svg PUBLIC "-//W3C//DTD SVG 1.1//EN" "http://www.w3.org/Graphics/SVG/1.1/DTD/svg11.dtd"><svg t="1531208384881" class="icon" style="" viewBox="0 0 1024 1024" version="1.1" xmlns="http://www.w3.org/2000/svg" p-id="4890" xmlns:xlink="http://www.w3.org/1999/xlink" width="200" height="200"><defs><style type="text/css"></style></defs><path d="M839.68 888.32c0 46.08-35.84 81.92-81.92 81.92H266.24c-46.08 0-81.92-35.84-81.92-81.92V289.28c0-46.08 35.84-81.92 81.92-81.92h381.44c15.36 0 28.16-12.8 28.16-28.16 0-15.36-12.8-28.16-28.16-28.16H266.24c-74.24 0-135.68 61.44-135.68 135.68v599.04c0 74.24 61.44 135.68 135.68 135.68h488.96c74.24 0 135.68-61.44 135.68-135.68v-486.4c0-15.36-12.8-28.16-28.16-28.16-15.36 0-28.16 12.8-28.16 28.16v488.96z"   p-id="4891"></path><path d="M716.8 640h102.4-102.4z"   p-id="4892"></path><path d="M486.4 460.8h-153.6c-15.36 0-25.6-10.24-25.6-25.6s10.24-25.6 25.6-25.6h153.6c15.36 0 25.6 10.24 25.6 25.6s-10.24 25.6-25.6 25.6zM665.6 640H332.8c-15.36 0-25.6-10.24-25.6-25.6s10.24-25.6 25.6-25.6h332.8c15.36 0 25.6 10.24 25.6 25.6s-10.24 25.6-25.6 25.6zM957.44 156.16L668.16 445.44c-10.24 10.24-25.6 10.24-35.84 0-10.24-10.24-10.24-25.6 0-35.84L919.04 117.76c10.24-10.24 25.6-10.24 35.84 0 12.8 10.24 12.8 28.16 2.56 38.4z"   p-id="4893"></path></svg>